<svg id="SvgjsSvg1497" width="288" height="288" xmlns="http://www.w3.org/2000/svg" version="1.1" xmlns:xlink="http://www.w3.org/1999/xlink" xmlns:svgjs="http://svgjs.com/svgjs"><defs id="SvgjsDefs1498"></defs><g id="SvgjsG1499"><svg xmlns="http://www.w3.org/2000/svg" viewBox="0 0 64 64" width="288" height="288"><path fill="#ffffff" d="M26,58H24.11a3.083,3.083,0,0,1-3.067-2.5A3,3,0,0,1,23,52.171V46.5a1.5,1.5,0,0,0-3,0V55a3,3,0,0,1-3,3H15.11a3.083,3.083,0,0,1-3.067-2.5A3,3,0,0,1,14,52.171V39.79a1,1,0,0,1,2,0V53a1,1,0,0,1-1,1,1,1,0,0,0-.984,1.175A1.085,1.085,0,0,0,15.11,56H17a1,1,0,0,0,1-1V46.5a3.5,3.5,0,1,1,7,0V53a1,1,0,0,1-1,1,1,1,0,0,0-.984,1.175A1.085,1.085,0,0,0,24.11,56H26a1,1,0,0,0,1-1V37.39a1,1,0,0,1,2,0V55A3,3,0,0,1,26,58Z" class="color363636 svgShape"></path><path fill="#ffffff" d="M52,58H50.11a3.083,3.083,0,0,1-3.067-2.5A3,3,0,0,1,49,52.171V45.5a1.5,1.5,0,0,0-3,0V55a3,3,0,0,1-3,3H41.11a3.083,3.083,0,0,1-3.067-2.5A3,3,0,0,1,40,52.171V35.5A5.5,5.5,0,0,0,34.33,30a5.286,5.286,0,0,0-3.613,1.607,1,1,0,0,1-1.434-1.394A7.289,7.289,0,0,1,34.264,28,7.5,7.5,0,0,1,42,35.5V53a1,1,0,0,1-1,1,1,1,0,0,0-.984,1.175A1.085,1.085,0,0,0,41.11,56H43a1,1,0,0,0,1-1V45.5a3.5,3.5,0,1,1,7,0V53a1,1,0,0,1-1,1,1,1,0,0,0-.984,1.175A1.085,1.085,0,0,0,50.11,56H52a1,1,0,0,0,1-1V35.5a18.4,18.4,0,0,0-34.623-8.791,1,1,0,1,1-1.754-.959A20.418,20.418,0,0,1,55,35.5V55A3,3,0,0,1,52,58Z" class="color363636 svgShape"></path><path fill="#ffffff" d="M20,42C13.935,42,9,37.514,9,32V23a1,1,0,0,1,1.6-.8l4.847,3.646a12.18,12.18,0,0,1,9.105,0L29.4,22.2A1,1,0,0,1,31,23v9C31,37.514,26.065,42,20,42ZM11,25v7c0,4.411,4.038,8,9,8s9-3.589,9-8V25L25.285,27.8a1,1,0,0,1-1.032.1,10.139,10.139,0,0,0-8.505,0,1,1,0,0,1-1.033-.1Z" class="color363636 svgShape"></path><path fill="#e7514d" d="M23 35a1 1 0 0 1-.556-1.832l3-2a1 1 0 1 1 1.11 1.664l-3 2A1 1 0 0 1 23 35zM17 35a1 1 0 0 1-.554-.168l-3-2a1 1 0 0 1 1.11-1.664l3 2A1 1 0 0 1 17 35z" class="colore7514d svgShape"></path><path fill="#ffffff" d="M54,36a1.012,1.012,0,0,1-1.013-1A1.084,1.084,0,0,1,53,34.838V9a1,1,0,0,0-2,0V23.7a1,1,0,0,1-2,0V9a3,3,0,0,1,6,0V35A1,1,0,0,1,54,36Z" class="color363636 svgShape"></path></svg></g></svg>