<svg xmlns="http://www.w3.org/2000/svg" enable-background="new 0 0 512 512" viewBox="0 0 512 512" id="happy-cat"><path fill="#fff" d="M376.9,222.1c0,10-1.1,19.4-3.1,28.3c-3.5,15.2-9.8,28.5-18.5,40c-3.3,4.4-7,8.5-10.9,12.3
								c-1.6-13-7.2-24.3-17.8-32.3c-33.8-25.4-84.6,34.3-84.6,34.3c-32.1-40.6-70.7-41.5-89.4-26.8c-2.2,1.7-4.1,3.6-5.7,5.8
								c-5.7-8.6-11.1-17.8-15-27.9c-4.3-11.1-6.8-23.1-5.9-36.3c0.6-9.6,2.1-18.9,4.5-27.7c6.1-23.2,17.8-43.3,33.3-59.4
								c2.9-3,6-5.9,9.1-8.7c5.5-4.8,11.4-9.1,17.6-12.9v0c12.8-7.8,26.9-13.6,41.8-16.9c6.7-1.5,13.5-2.5,20.5-2.9
								c3-0.2,6-0.3,9.1-0.3c18.1,0,34.5,4.8,49,12.9c5.7,3.2,11.1,6.9,16.2,11.1c12.7,10.5,23.3,23.7,31.4,38.3
								c3.4,6.1,6.3,12.4,8.8,18.8c4,10.3,6.8,20.9,8.4,31.5C376.4,209.6,376.9,215.9,376.9,222.1z"></path><path fill="#451661" d="M241.9,305.3l-0.4-0.5c-18.4-23.2-37-31.2-49.5-33.9c-15-3.2-29.3-0.6-39.3,7.2c-2.1,1.7-4,3.6-5.6,5.7
								l-0.4,0.6l-0.4-0.6c-6.8-10.3-11.6-19.1-15-28c-4.8-12.4-6.7-24.3-6-36.5c0.6-9.5,2.1-18.9,4.5-27.8
								c3-11.4,7.4-22.3,13.2-32.5c5.6-9.9,12.4-19,20.2-27.2c3-3.1,6-6,9.2-8.7c5.4-4.7,11.3-9,17.5-12.8v0l0.2-0.2
								c13-8,27.1-13.6,42-16.9c6.7-1.5,13.6-2.5,20.5-2.9c3-0.2,6-0.3,9.1-0.3c17.4,0,33.9,4.4,49.2,13c5.6,3.2,11.1,6.9,16.2,11.2
								c12.3,10.1,23.2,23.4,31.6,38.5c3.4,6.1,6.3,12.4,8.8,18.9c4,10.3,6.8,21,8.4,31.6c0.9,6.4,1.4,12.7,1.4,18.9
								c0,9.9-1.1,19.4-3.1,28.4c-3.4,14.9-9.7,28.4-18.6,40.1c-3.3,4.3-7,8.5-11,12.3l-0.7,0.7l-0.1-1c-1.7-13.7-7.6-24.4-17.6-32
								c-17.2-12.9-39.1-3-54.4,7.6c-16.7,11.6-29.4,26.4-29.6,26.6L241.9,305.3z M179.8,268.6c4.1,0,8.2,0.5,12.4,1.4
								c12.5,2.7,31.2,10.8,49.7,33.8c2.3-2.6,14.2-15.8,29.3-26.3c9.9-6.9,19.2-11.2,27.7-13c10.7-2.3,20-0.4,27.9,5.5
								c10,7.5,16,18.2,17.9,31.7c3.7-3.6,7.1-7.5,10.1-11.5c8.8-11.6,15-25,18.4-39.8c2.1-8.9,3.1-18.4,3.1-28.2
								c0-6.1-0.5-12.4-1.4-18.8c-1.5-10.6-4.3-21.1-8.3-31.4c-2.5-6.4-5.4-12.7-8.8-18.7c-8.3-14.9-19.1-28.1-31.3-38.2
								c-5.1-4.2-10.5-7.9-16.1-11.1c-15.1-8.5-31.5-12.8-48.7-12.8c-3.1,0-6.1,0.1-9,0.3c-6.8,0.5-13.7,1.4-20.4,2.9
								c-14.7,3.2-28.6,8.8-41.4,16.7l-0.2,0.1c-6.2,3.8-12.1,8.1-17.6,12.8c-3.1,2.7-6.2,5.6-9.1,8.6
								c-15.8,16.4-27.2,36.9-33.1,59.2c-2.4,8.9-3.9,18.2-4.5,27.6c-0.8,12,1.2,23.8,5.9,36.1c3.3,8.6,7.9,17.2,14.5,27.2
								c1.6-2,3.4-3.8,5.4-5.3c4.8-3.8,10.9-6.5,17.6-7.8C173,268.9,176.4,268.6,179.8,268.6z"></path><g opacity=".3"><path fill="#6b184e" d="M284,235.7c0,0.1,0,0.1-0.1,0.2c0,0.2-0.1,0.3-0.2,0.4c-0.8,2.2-2.2,4.2-4.2,5.8c0,0-0.1,0-0.1,0l0,0
								c-6.8,14.6-26.4,23.8-26.4,23.8s1.5,22.1-20.4,17c-12.6-2.9-8-19.2-8-19.2c-7.8-23.5-14.3-33.9-14.3-33.9
								c-2.2-4.2-0.3-9.5,0.9-12c0-0.1,0.1-0.2,0.1-0.3c0-0.1,0.1-0.1,0.1-0.2c0.1-0.1,0.1-0.2,0.2-0.3c0-0.1,0.1-0.2,0.1-0.3
								c0.1-0.1,0.1-0.2,0.2-0.3c0-0.1,0.1-0.1,0.1-0.1s1.9,8.7,14,12.5c11.9,3.7,15.5-5.2,15.6-5.4c1.6,3.2,3.5,4.7,5.5,5.2
								c0.1,0,0.3,0.1,0.4,0.1c4.3,0.8,8.5-2.8,8.7-3h0c-0.1,0.4-2.5,12.5,9.9,12.5c12.6,0,17.2-10.6,17.2-10.6
								C284.7,230.8,284.6,233.5,284,235.7z"></path><path fill="#451661" d="M238.8,284.3c-1.9,0-3.9-0.3-6.1-0.8c-3.3-0.8-5.7-2.5-7.3-5.1c-3.3-5.6-1.5-13.4-1.2-14.6
								c-7.6-23.1-14.1-33.5-14.2-33.6l0,0c-2.3-4.3-0.4-9.7,0.9-12.5c0-0.1,0.1-0.2,0.1-0.3c0-0.1,0.1-0.1,0.1-0.2
								c0-0.1,0.1-0.2,0.1-0.2c0,0,0-0.1,0.1-0.1c0.1-0.1,0.1-0.2,0.2-0.3c0,0,0-0.1,0.1-0.1c0-0.1,0.1-0.1,0.1-0.1
								c0-0.1,0.1-0.1,0.1-0.1l0.6-1.1l0.3,1.2c0,0.1,2,8.5,13.7,12.1c11,3.4,14.6-4.2,15-5.1l0.4-1l0.5,1c1.3,2.8,3.1,4.4,5.2,5
								c0.1,0,0.3,0.1,0.4,0.1c4.1,0.8,8.2-2.9,8.3-2.9l0.1-0.1h0.8l-0.1,0.6c0,0.2-1.1,5.4,1.7,8.9c1.6,2,4.2,3,7.7,3
								c5.1,0,9.4-1.7,13-5.1c2.6-2.6,3.8-5.2,3.8-5.2l0.5-1.1l0.4,1.2c1.1,2.9,1.3,5.7,0.6,8.3c0,0,0,0.1,0,0.1c0,0,0,0,0,0.1
								l0,0.1c0,0.1-0.1,0.3-0.1,0.4c-0.8,2.3-2.3,4.3-4.3,6c-3.6,7.6-10.6,13.7-15.9,17.4c-4.9,3.5-9.3,5.7-10.4,6.3
								c0.1,1.8,0,10.2-5.5,14.9C245.8,283.2,242.6,284.3,238.8,284.3z M210.9,229.7c0.3,0.5,6.8,11.1,14.3,34l0,0.1l0,0.1
								c0,0.1-2.3,8.4,1,14c1.4,2.4,3.6,3.9,6.6,4.6c6.3,1.5,11.3,0.7,14.6-2.2c5.7-4.9,5.1-14.3,5.1-14.4l0-0.3l0.3-0.1
								c0.2-0.1,19.6-9.3,26.2-23.5l0-0.1l0.1-0.1c0,0,0.1-0.1,0.1-0.1c1.9-1.6,3.3-3.5,4-5.6l0,0c0-0.1,0.1-0.2,0.1-0.3l0-0.1
								c0,0,0-0.1,0-0.1c0,0,0,0,0-0.1l0,0c0.6-2.1,0.5-4.3-0.2-6.6c-0.6,1-1.7,2.7-3.4,4.4c-2.6,2.5-7,5.5-13.7,5.5
								c-3.8,0-6.7-1.1-8.5-3.4c-2.2-2.8-2.2-6.5-2.1-8.5c-1.6,1.1-4.8,3-8.1,2.4c-0.2,0-0.3-0.1-0.5-0.1c-2.1-0.5-3.9-2.1-5.4-4.6
								c-1.1,1.9-4,5.7-10.2,5.7c-1.6,0-3.5-0.3-5.6-0.9c-6.4-2-9.9-5.3-11.8-7.8c-1.2-1.5-1.8-2.9-2.2-3.8c0,0,0,0.1-0.1,0.1
								c0,0.1-0.1,0.2-0.1,0.2C210.8,220.3,208.7,225.6,210.9,229.7z"></path></g><path fill="#ed2e7a" d="M338.9,336.2c-14.6-2.1-32.2-0.4-32.2,16.6c0,3,0.9,5.6,2.6,8c3,4.3,8.2,7.7,14.7,10.1
								c-0.5,0.9-1.1,1.9-1.7,2.8c-0.4,0.7-0.8,1.4-1.3,2.1c-1.5,2.4-3.1,4.8-4.7,7.2c-0.3,0.4-0.6,0.9-0.9,1.3
								c-0.2,0.2-0.3,0.4-0.5,0.7c-0.3,0.5-0.7,1-1.1,1.5c-0.4,0.6-0.9,1.2-1.4,1.9c-0.3,0.4-0.6,0.9-1,1.3
								c-0.2,0.3-0.4,0.6-0.6,0.8c-0.3,0.4-0.7,0.9-1,1.3c-0.7,0.9-1.3,1.7-2.1,2.6c-0.8,1-1.7,2-2.5,3c-0.4,0.5-0.9,1-1.3,1.5
								c-0.1,0.1-0.2,0.3-0.3,0.4c-0.5,0.5-0.9,1-1.4,1.5c-0.1-0.1-0.2-0.1-0.3-0.2c-16.9,16.1-43.1,34.7-61.4,35.2
								c-0.3,0-0.6,0-0.9,0c-0.3,0-0.6,0-1,0c-19.6-0.6-46.7-19.5-63.2-35.6h0c-0.6-0.7-1.3-1.5-1.9-2.2c-0.5-0.6-1.1-1.3-1.6-1.9
								c-0.7-0.9-1.4-1.7-2.1-2.6c-0.6-0.8-1.2-1.5-1.8-2.3c-0.5-0.7-1-1.3-1.5-2c-0.7-0.9-1.3-1.8-2-2.7c-0.5-0.8-1.1-1.5-1.6-2.3
								c-0.6-0.9-1.2-1.7-1.8-2.6c-0.5-0.8-1.1-1.6-1.6-2.5c-1.6-2.5-3.1-5-4.5-7.5c7.4-2.4,13.5-6,16.7-10.7c1.7-2.4,2.6-5.1,2.6-8
								c0-17.8-19.2-18.8-34.1-16.3c-2.7-9.6-4-18.9-3.7-27.3c0.3-10,2.8-18.8,8-25.6c1.6-2.2,3.5-4.1,5.7-5.8
								c18.7-14.7,57.3-13.8,89.4,26.8c0,0,50.9-59.7,84.6-34.3c10.7,8,16.2,19.3,17.8,32.3c0.3,2,0.4,4.1,0.5,6.2
								C342.9,317.5,341.5,326.7,338.9,336.2z"></path><path fill="#451661" d="M239.7,436.3c-0.3,0-0.6,0-1,0c-9-0.3-20.4-4.4-33-12.1c-10.3-6.2-21.4-14.8-30.4-23.5h0l-0.2-0.2
								c-0.7-0.8-1.3-1.5-1.9-2.2c-0.5-0.6-1.1-1.3-1.6-1.9c-0.6-0.7-1.3-1.6-2.1-2.6c-0.6-0.8-1.2-1.5-1.8-2.3
								c-0.5-0.6-0.9-1.2-1.5-2c-0.7-0.9-1.4-1.9-2-2.7c-0.5-0.7-1.1-1.5-1.6-2.2l0,0c-0.7-0.9-1.2-1.8-1.8-2.6
								c-0.6-0.9-1.2-1.8-1.6-2.5c-1.6-2.5-3.1-5-4.6-7.6l-0.3-0.5l0.6-0.2c7.7-2.5,13.4-6.1,16.5-10.6c1.7-2.4,2.5-5,2.5-7.7
								c0-5.2-1.7-9.2-5-12c-7.4-6.3-21.1-5.1-28.6-3.8L140,337l-0.1-0.4c-2.7-9.9-4-19.1-3.7-27.5c0.3-10.5,3-19.2,8.1-25.9
								c1.7-2.2,3.6-4.2,5.8-5.9c4.8-3.8,10.9-6.5,17.6-7.8c7.2-1.4,14.7-1.3,22.5,0.4c12.5,2.7,31.2,10.8,49.7,33.8
								c2.3-2.6,14.2-15.8,29.3-26.3c9.9-6.9,19.2-11.2,27.7-13c10.7-2.3,20-0.4,27.9,5.5c10.3,7.7,16.3,18.7,18,32.7
								c0.3,2,0.4,4.1,0.5,6.3c0.2,8.5-1,17.7-3.7,27.5l-0.1,0.4l-0.4-0.1c-7-1-19.8-1.8-26.8,4.2c-3.2,2.8-4.9,6.8-4.9,11.9
								c0,2.7,0.8,5.3,2.5,7.7c2.8,4,7.8,7.4,14.5,9.9l0.6,0.2l-0.3,0.5c-0.5,0.9-1.1,1.9-1.7,2.8c-0.4,0.7-0.8,1.4-1.3,2.1
								c-1.5,2.4-3.1,4.9-4.8,7.2c-0.3,0.4-0.6,0.9-0.9,1.3c-0.1,0.2-0.3,0.4-0.5,0.7c-0.3,0.5-0.7,1-1,1.5
								c-0.5,0.6-0.9,1.3-1.4,1.9c-0.3,0.4-0.6,0.9-1,1.3c-0.2,0.3-0.4,0.6-0.6,0.8c-0.3,0.4-0.7,0.9-1,1.3
								c-0.7,0.9-1.4,1.8-2.1,2.6c-0.8,1-1.6,2-2.5,3c-0.4,0.4-0.8,0.9-1.2,1.3l-0.1,0.2c-0.1,0.1-0.2,0.3-0.4,0.4
								c-0.5,0.5-0.9,1-1.4,1.5l-0.3,0.3l-0.3-0.2c0,0,0,0,0,0c-9.3,8.8-19.9,17.1-30,23.3c-12.2,7.5-23.1,11.6-31.5,11.8
								C240.3,436.3,240,436.3,239.7,436.3z M175.9,399.8L175.9,399.8c9,8.7,20.1,17.3,30.4,23.5c12.5,7.5,23.7,11.7,32.5,11.9
								c0.6,0,1.2,0,1.8,0c17.4-0.5,43.2-18,61-35.1l0.3-0.3l0.3,0.2c0.4-0.4,0.7-0.8,1.1-1.2l0,0c0.1-0.1,0.2-0.2,0.3-0.3l0.2-0.2
								c0.4-0.4,0.8-0.9,1.2-1.3c0.9-1,1.8-2.1,2.5-3c0.7-0.8,1.4-1.6,2.1-2.6c0.3-0.4,0.7-0.9,1-1.3c0.2-0.3,0.4-0.6,0.6-0.8
								c0.3-0.4,0.7-0.9,1-1.3c0.5-0.6,0.9-1.2,1.4-1.9c0.4-0.5,0.7-1,1-1.5l0,0c0.2-0.2,0.3-0.4,0.4-0.6c0.3-0.5,0.6-0.9,0.9-1.3
								c1.6-2.3,3.2-4.8,4.7-7.2c0.4-0.7,0.8-1.4,1.3-2.1c0.5-0.8,0.9-1.5,1.4-2.3c-6.6-2.5-11.6-6-14.4-10
								c-1.8-2.6-2.7-5.4-2.7-8.3c0-5.4,1.7-9.7,5.2-12.6c7.1-6.2,19.9-5.5,27.1-4.5c2.6-9.5,3.8-18.5,3.6-26.8
								c-0.1-2.1-0.2-4.2-0.5-6.2c-1.7-13.7-7.6-24.4-17.6-32c-17.2-12.9-39.1-3-54.4,7.6c-16.7,11.6-29.4,26.4-29.6,26.6l-0.4,0.5
								l-0.4-0.5c-18.4-23.2-37-31.2-49.5-33.9c-15-3.2-29.3-0.6-39.3,7.2c-2.1,1.7-4,3.6-5.6,5.7c-4.9,6.5-7.5,15-7.9,25.3
								c-0.2,8.1,1,17.1,3.6,26.7c7.7-1.3,21.4-2.3,28.9,4.1c3.6,3,5.4,7.3,5.3,12.8c0,2.9-0.9,5.7-2.7,8.3
								c-3.1,4.5-8.8,8.2-16.4,10.7c1.4,2.4,2.8,4.7,4.2,7c0.4,0.7,1,1.6,1.6,2.5c0.5,0.8,1.1,1.7,1.7,2.6l0,0
								c0.5,0.7,1,1.5,1.6,2.2c0.6,0.9,1.3,1.8,2,2.7c0.6,0.8,1,1.4,1.5,2c0.6,0.8,1.2,1.6,1.8,2.3c0.8,1,1.5,1.8,2.1,2.6
								c0.5,0.6,1.1,1.3,1.6,1.9C174.6,398.3,175.2,399,175.9,399.8z"></path><path fill="#fff" d="M387,349.9c0,22-31.7,28.3-55.2,23.2c-2.7-0.6-5.3-1.3-7.8-2.2c-6.5-2.4-11.8-5.7-14.7-10.1
								c-1.7-2.4-2.6-5.1-2.6-8c0-17,17.6-18.7,32.2-16.6c2.6-9.4,4-18.7,3.7-27.4C342.6,308.8,387,314.9,387,349.9z"></path><path fill="#451661" d="M347.7,375.2c-5.4,0-10.9-0.6-16-1.7c-2.7-0.6-5.3-1.3-7.8-2.3c-6.9-2.5-12.1-6.1-15-10.2
								c-1.8-2.6-2.7-5.4-2.7-8.3c0-5.4,1.7-9.7,5.2-12.6c7.1-6.2,19.9-5.5,27.1-4.5c2.6-9.5,3.8-18.5,3.6-26.8l0-0.6l0.6,0.1
								c0.1,0,11.3,1.6,22.3,7.5c6.5,3.5,11.7,7.7,15.4,12.6c4.7,6.2,7,13.4,7,21.5c0,6.6-2.7,12.1-8.1,16.4
								c-5.2,4.2-12.8,7.1-21.9,8.3C354.3,375,351,375.2,347.7,375.2z M329.5,336c-6.2,0-13,1.1-17.4,4.9c-3.2,2.8-4.9,6.8-4.9,11.9
								c0,2.7,0.8,5.3,2.5,7.7c2.8,4,7.8,7.4,14.5,9.9c2.4,0.9,5,1.6,7.7,2.2c17.7,3.8,36.9,0.9,46.9-7.1c5.1-4.1,7.7-9.4,7.7-15.6
								c0-14.3-7.4-25.5-21.9-33.2c-9.5-5-19-6.9-21.4-7.3c0.2,8.3-1.1,17.4-3.7,26.9l-0.1,0.4l-0.4-0.1
								C336.3,336.3,333,336,329.5,336z"></path><path fill="#fff" d="M174.5,352.7c0,3-0.9,5.6-2.6,8c-3.3,4.7-9.4,8.4-16.7,10.7c-1,0.3-2,0.6-3.1,0.9
								c-23.7,6.2-57.9,0.3-57.9-22.5c0-30.6,33.8-39.1,42.4-40.7c-0.2,8.5,1.1,17.8,3.7,27.3C155.2,333.9,174.5,335,174.5,352.7z"></path><path fill="#451661" d="M133.5,375.2c-2.7,0-5.4-0.1-8-0.4c-9.6-1-17.6-3.9-23.2-8.2c-5.7-4.4-8.5-10-8.5-16.8
								c0-7.2,1.8-13.6,5.5-19.3c3-4.7,7.3-8.8,12.7-12.3c9.6-6.2,20.4-8.8,24.6-9.6l0.6-0.1l0,0.6c-0.2,8.1,1,17.1,3.6,26.7
								c7.7-1.3,21.4-2.3,28.9,4.1c3.6,3,5.4,7.3,5.3,12.8c0,2.9-0.9,5.7-2.7,8.3c-3.2,4.6-9.1,8.4-17,10.9c-0.9,0.3-2,0.6-3.1,0.9
								C146.3,374.5,139.9,375.2,133.5,375.2z M136.1,309.8c-10.5,2.1-41.4,10.9-41.4,40.1c0,6.4,2.7,11.8,8.1,16
								c12,9.3,33.8,10.1,49.1,6.1c1.1-0.3,2.1-0.6,3-0.9c7.7-2.5,13.4-6.1,16.5-10.6c1.7-2.4,2.5-5,2.5-7.7v0c0-5.2-1.7-9.2-5-12
								c-7.4-6.3-21.1-5.1-28.6-3.8l-0.4,0.1l-0.1-0.4C137.2,327,135.9,318,136.1,309.8z"></path><path fill="#fff" d="M237.7 470.8c-44.2 0-93.6-2.4-142.6-9.6h0c-1.1.2-2.1.3-3.2.3-16 0-28.9-19.4-28.9-43.4 0-23.9 12.9-43.4 28.9-43.4 7.5 0 14.3 4.2 19.4 11.2h0c19.3-17 29.9-2.6 40.8-13.5 1-.3 2.1-.6 3.1-.9 1.4 2.5 3 5.1 4.5 7.5.5.8 1.1 1.6 1.6 2.5.6.9 1.2 1.7 1.8 2.6.5.8 1 1.5 1.6 2.3.7.9 1.3 1.8 2 2.7.5.7 1 1.3 1.5 2 .6.8 1.2 1.6 1.8 2.3.7.9 1.4 1.7 2.1 2.6.5.7 1.1 1.3 1.6 1.9.6.7 1.3 1.5 1.9 2.2-16.8 9.1-23.7 28.2-19.4 40.9C162.8 460.7 192.6 470.6 237.7 470.8zM421.2 418.1c0 20.6-9.6 37.9-22.5 42.3 0 0 0 0 0 0-.3 0-2.9.4-7.6 1h0c-20.1 2.6-77.7 9.1-149.4 9.3 44.7-.3 74.9-9.9 80.4-29.6 3.2-11.4-3.3-31.2-19.9-40.4.5-.5.9-1 1.4-1.5.1-.1.2-.3.3-.4.4-.5.9-1 1.3-1.5.9-1 1.7-2 2.5-3 .7-.8 1.4-1.7 2.1-2.6.4-.4.7-.9 1-1.3.2-.3.4-.5.6-.8.3-.4.7-.9 1-1.3.5-.6.9-1.2 1.4-1.9.4-.5.7-1 1.1-1.5.2-.2.3-.4.5-.7.3-.4.6-.9.9-1.3 1.6-2.4 3.2-4.8 4.7-7.2.4-.7.9-1.4 1.3-2.1.6-.9 1.1-1.9 1.7-2.8 2.4.9 5 1.6 7.8 2.2 6.3 9.9 24.7 5.1 34.8 25.3 4.8-14 14.5-23.6 25.7-23.6C408.3 374.7 421.2 394.2 421.2 418.1z"></path><path fill="#f9a528" d="M322.2,441.1c-5.5,19.8-35.8,29.3-80.4,29.6c-0.9,0-1.7,0-2.6,0h-1.5c-45.1-0.2-75-10-81.6-29.7
								c-4.3-12.7,2.6-31.8,19.4-40.9h0c16.5,16,43.5,35,63.2,35.6c0.3,0,0.6,0,1,0c0.3,0,0.6,0,0.9,0c18.3-0.6,44.5-19.1,61.4-35.2
								c0.1,0.1,0.2,0.1,0.3,0.2C318.9,409.9,325.4,429.7,322.2,441.1z"></path><path fill="#ed2e7a" d="M356.1,152.9c-8.1-14.6-18.7-27.8-31.4-38.3c0,0,32.1-22.3,44-9.6C378.8,115.9,356.1,152.9,356.1,152.9z
								"></path><path fill="#451661" d="M356.1,153.9l-0.4-0.8c-8.3-14.9-19.1-28.1-31.3-38.2l-0.5-0.4l0.5-0.4c0.1-0.1,8.2-5.6,17.6-9.6
								c5.6-2.3,10.5-3.6,14.7-3.9c5.3-0.3,9.5,1,12.3,4c4.4,4.7,3.6,14.3-2.4,28.5c-4.4,10.5-10.1,19.8-10.1,19.9L356.1,153.9z
								 M325.5,114.7c11.9,9.9,22.4,22.8,30.6,37.3c3.1-5.3,21.2-36.9,12.2-46.5c-2.6-2.8-6.5-4-11.5-3.7c-4.1,0.3-8.9,1.6-14.4,3.8
								C334.5,108.9,327.5,113.4,325.5,114.7z"></path><path fill="#f9a528" d="M364.9,171.7c-2.5-6.4-5.4-12.7-8.8-18.8c0,0,22.7-37,12.6-47.9c-11.9-12.7-44,9.6-44,9.6
								c-5.1-4.2-10.5-7.9-16.2-11.1c0,0,57.8-35,75.1-16.9C402.5,106.3,364.9,171.7,364.9,171.7z"></path><path fill="#ed2e7a" d="M230,93.8c-14.9,3.3-29,9-41.8,16.9c-0.2-4.6-1.7-42.5,11.8-47.6C213.7,58,226.3,85.9,230,93.8z"></path><path fill="#451661" d="M187.7,111.6l0-0.9c-0.1-2.9-0.5-13.2,0.8-23.7c1.7-14,5.5-22.2,11.4-24.4c13.9-5.2,26.3,21.7,30.4,30.6
								l0.4,1l-0.6,0.1c-14.8,3.3-28.8,8.9-41.7,16.8L187.7,111.6z M203.4,63c-1.1,0-2.2,0.2-3.2,0.6c-12.6,4.7-11.8,39.2-11.6,46.2
								c12.6-7.6,26.3-13.1,40.6-16.4c-2-4.3-6-12.9-11.2-20C212.9,66.5,208,63,203.4,63z"></path><path fill="#fff" d="M250.5,90.9c-6.9,0.5-13.8,1.4-20.5,2.9c-3.7-8-16.3-35.8-30-30.7c-13.5,5.1-12.1,43-11.8,47.6v0
								c-6.2,3.8-12.1,8.1-17.6,12.9c-0.8-15.2-2.3-75.1,21.5-83.2C216.3,32.2,244.5,80.1,250.5,90.9z"></path><path fill="#451661" d="M170.1,124.6l-0.1-1c-0.4-7.3-1-26.3,1.5-44.3c3.2-22.6,10-35.8,20.3-39.3c5.7-1.9,12.1-0.9,18.9,3
								c5.6,3.2,11.5,8.3,17.7,15.3c10.8,12.2,19.3,26.8,22.4,32.5l0.4,0.7l-0.8,0.1c-6.8,0.5-13.7,1.4-20.4,2.9l-0.4,0.1l-0.4-0.8
								c-2-4.2-6-13-11.3-20.1c-6.4-8.6-12.4-12-17.9-9.9c-13.2,4.9-11.7,42.8-11.5,47.1l0,0v0.3l-0.2,0.2
								c-6.2,3.8-12.1,8.1-17.6,12.8L170.1,124.6z M197.8,40c-1.9,0-3.8,0.3-5.6,0.9c-5.4,1.8-9.8,6.5-13.2,14
								c-2.9,6.3-5,14.5-6.4,24.5c-2.4,17.2-1.9,35.2-1.6,43.1c5.2-4.4,10.8-8.5,16.7-12.1c-0.1-3.2-0.5-13.2,0.8-23.4
								c1.7-14,5.5-22.2,11.4-24.4c13.9-5.2,26.3,21.7,30.4,30.6l0,0c6.3-1.4,12.8-2.3,19.3-2.8c-3.4-6.1-11.6-19.9-21.9-31.6
								c-6.1-6.9-11.9-12-17.4-15.1C205.9,41.2,201.7,40,197.8,40z"></path><path fill="#4f124c" d="M263.3,245.5c0,0-8.4,32.1-25.3,29.3c-14.3-2.4-10.7-28.9-9.3-37c16.2,3.6,20.1-10.8,20.1-10.8
								S247.3,246.8,263.3,245.5z"></path><path fill="#451661" d="M240.1,275.5c-0.7,0-1.4-0.1-2.2-0.2c-3-0.5-5.4-2-7.2-4.6c-6-8.5-3.7-25.9-2.5-33l0.1-0.5l0.5,0.1
								c6.5,1.5,11.8,0.2,15.7-3.9c2.9-3,3.9-6.5,3.9-6.5l1,0.2c0,0.1-0.7,9.8,4.3,14.8c2.3,2.3,5.6,3.4,9.6,3.1l0.7-0.1l-0.2,0.7
								c0,0.1-2.2,8.2-6.4,15.8c-2.5,4.5-5.2,8-8,10.4C246.5,274.3,243.3,275.5,240.1,275.5z M229.2,238.5c-1,6-3.4,23.5,2.4,31.7
								c1.6,2.3,3.8,3.7,6.6,4.2c8.4,1.4,14.7-6.5,18.4-13.3c3.4-6.3,5.5-12.9,6.1-14.9c-4,0.2-7.3-1-9.7-3.4
								c-3.7-3.7-4.5-9.6-4.6-12.9c-0.6,1.3-1.6,2.9-3.1,4.5c-2.2,2.3-5.9,4.8-11.5,4.8C232.3,239,230.8,238.8,229.2,238.5z"></path><path fill="#4f124c" d="M249.6,224.9c-7-1.3-12.9-17-7.2-18.9c11.9-4,22.8,3.5,23.5,7.4C266.5,217.2,256.7,226.2,249.6,224.9z"></path><path fill="#451661" d="M251.1,225.5c-0.5,0-1,0-1.5-0.1l0,0c-5-0.9-9.5-8.6-9.9-14.4c-0.2-2.9,0.7-4.8,2.6-5.4
								c6.2-2.1,13.3-1.3,19,2.1c2.9,1.7,4.9,3.9,5.2,5.6c0.3,1.6-1,4-3.5,6.5C259.8,222.8,255.2,225.5,251.1,225.5z M249.2,205.4
								c-2.1,0-4.3,0.3-6.7,1.1c-1.9,0.6-2,3-1.9,4.4c0.4,5.4,4.6,12.7,9.1,13.5l0,0c4.1,0.8,9.2-2.1,12.5-5.4
								c2.2-2.1,3.4-4.3,3.2-5.6c-0.2-1.2-1.7-3.1-4.7-4.9C259.2,207.6,254.9,205.4,249.2,205.4z"></path><g><path fill="#ed2e7a" d="M256.2,262.6c-0.1,0.2-0.2,0.4-0.3,0.6c-4.2,6.9-10.2,13-17.9,11.7c-7.8-1.3-10.3-9.8-10.7-18.6
								c0,0,0,0,0-0.1C228.3,255.3,243.5,243.3,256.2,262.6z"></path><path fill="#451661" d="M240.1,275.5c-0.7,0-1.5-0.1-2.2-0.2c-3.8-0.6-6.6-2.9-8.5-6.8c-1.5-3.1-2.4-7.2-2.6-12.3l0-0.1l0,0
								v-0.2l0.2-0.2c0.7-0.6,7-5.6,14.9-4.4c5.5,0.8,10.5,4.5,14.7,10.9l0.2,0.3l-0.2,0.3c-0.1,0.2-0.2,0.4-0.3,0.6
								C251.4,271.5,246,275.5,240.1,275.5z M227.8,256.4c0.5,10.9,4,16.9,10.3,18c6.3,1.1,12.1-2.8,17.4-11.5
								c0.1-0.1,0.1-0.2,0.2-0.3c-4-6-8.7-9.5-13.9-10.2C234.7,251.3,229,255.4,227.8,256.4z"></path></g><g><ellipse cx="253" cy="210.9" fill="#fff" rx="2.9" ry="7.7" transform="rotate(-79.298 253.012 210.95)"></ellipse><path fill="#451661" d="M255.9,214.7c-1.1,0-2.3-0.1-3.5-0.3c-3.9-0.7-7.9-2.7-7.4-4.9c0.4-2.2,4.8-2.6,8.7-1.9
								c2.1,0.4,4,1.1,5.4,1.9c1.5,0.9,2.3,2,2.1,3c-0.2,1-1.3,1.7-3,2C257.4,214.6,256.7,214.7,255.9,214.7z M250.2,208.2
								c-2.4,0-4.1,0.6-4.2,1.4c-0.2,1.1,2.6,3,6.6,3.7c2,0.4,3.9,0.4,5.3,0.2c1.3-0.2,2.1-0.7,2.2-1.2l0,0c0.1-0.5-0.5-1.3-1.6-1.9
								c-1.3-0.8-3.1-1.4-5-1.8C252.3,208.3,251.2,208.2,250.2,208.2z"></path></g><g><ellipse cx="398" cy="431.3" fill="#f9a528" rx="19.3" ry="13.2" transform="matrix(.07043 -.9975 .9975 .07043 -60.296 797.897)"></ellipse><ellipse cx="384" cy="405.1" fill="#f9a528" rx="5.1" ry="7"></ellipse><ellipse cx="398" cy="397.2" fill="#f9a528" rx="5.1" ry="7"></ellipse><ellipse cx="411.3" cy="404.2" fill="#f9a528" rx="5.1" ry="7"></ellipse></g><g><ellipse cx="87.4" cy="431.7" fill="#f9a528" rx="13.2" ry="19.3" transform="matrix(.9975 -.07043 .07043 .9975 -30.186 7.224)"></ellipse><ellipse cx="101.3" cy="405.4" fill="#f9a528" rx="5.1" ry="7"></ellipse><ellipse cx="87.4" cy="397.6" fill="#f9a528" rx="5.1" ry="7"></ellipse><ellipse cx="74" cy="404.6" fill="#f9a528" rx="5.1" ry="7"></ellipse></g><g><path fill="#451661" d="M174.5 269.5c-.9.1-1.8.1-2.7.2-.3 0-.6.1-1 .1-.3 0-.6.1-1 .1-1.3.2-2.6.4-3.8.7-.3.1-.6.2-.9.2-.2.1-.4.1-.7.2-.1 0-.1 0-.2.1-.3.1-.5.1-.8.2-.2 0-.4.1-.5.2-.2 0-.3.1-.5.2-.4.2-.9.3-1.3.5-.2.1-.4.2-.6.2-.2.1-.4.2-.6.2-.3.1-.6.2-.8.3-.1.1-.3.1-.4.2-.1.1-.3.1-.4.2-.3.1-.5.2-.8.4-.3.1-.5.3-.8.4-.3.1-.5.3-.8.4-.3.2-.6.3-1 .5-.4.2-.8.5-1.3.8-.3.2-.7.4-1 .7-.4.2-.7.5-1.1.8-.4.3-.7.5-1 .8-2.2 1.7-4.1 3.7-5.7 5.8-12-18.1-22.5-39.1-20.9-64.2 0-.5.1-1.1.1-1.6.7-9.1 2.2-17.8 4.4-26.1 2 .6 3.7 1.2 5.1 2C136.3 221.6 146.2 253.5 174.5 269.5zM374.1 236.8c-1 9.1-2.9 17.6-5.7 25.6-5.4 15.6-14.1 29-25.4 39.9v0c-.2.2-.4.4-.6.6-1.4-11.7-6.1-22.1-14.9-29.9 19-3.3 32.8-19.5 42.4-36.6C371.2 236.4 372.6 236.6 374.1 236.8zM174.7 353.4c-.1 2.8-1 5.4-2.6 7.7-.7 1-1.6 2-2.5 2.9-.1.1-.3.3-.4.4-.1.1-.3.3-.4.4-.2.2-.4.4-.7.6-.2.2-.5.4-.7.6 0 0 0 0 0 0-.2.1-.4.3-.6.4-.2.2-.4.3-.6.4-.4.3-.9.6-1.3.8-.2.1-.5.3-.7.4-.2.1-.5.3-.7.4-.2.1-.4.2-.6.3-.1.1-.3.1-.4.2-.4.2-.8.4-1.3.6-1.3.6-2.7 1.2-4.2 1.7-.2.1-.5.2-.7.2-.3.1-.6.2-.9.3-1 .3-2 .6-3.1.9-16.4 4.3-37.6 2.8-49.3-6-5.3-4-8.6-9.5-8.6-16.6 0-8.3 2.5-15 6.3-20.4-.8 5.2-.8 9.7-.1 13.6v0c4.8 26.2 40.7 25.3 62.5 16.5C167.8 358 171.8 355.8 174.7 353.4zM421.5 418.4c0 20.6-9.6 37.9-22.5 42.3 0 0 0 0 0 0-.3 0-2.9.4-7.6 1h0c-20.1 2.6-77.7 9.1-149.4 9.3-.9 0-1.7 0-2.6 0h-.6c-44.5 0-143.5-9.6-143.5-9.6h0c-1.1.2-2.1.3-3.2.3-16 0-28.9-19.4-28.9-43.4 0-8 1.4-15.5 4-21.9 1.6 18.4 7.4 49.4 27.3 49.4 28.3 0 195 22.5 300.7-2.7 0 0 25.5-12.5 22.7-45.8C420.2 403.6 421.5 410.8 421.5 418.4z" opacity=".3"></path><path fill="#451661" d="M322.6,374c-7.7,12.8-17.2,24.8-27.7,34.8c-17.1,16.4-36.7,27.3-55,27.3c-19.7,0-39.4-10.9-56.2-27.2
									c-9.1-8.8-17.3-19.1-24.2-30.1c-1.5-2.3-2.8-4.6-4.2-6.9c0.3-0.1,0.6-0.2,0.9-0.3c0.2-0.1,0.5-0.2,0.7-0.2
									c1.4-0.5,2.8-1.1,4.2-1.7c0.4-0.2,0.9-0.4,1.3-0.6c0.1-0.1,0.3-0.1,0.4-0.2c0.2-0.1,0.4-0.2,0.6-0.3
									c0.2-0.1,0.5-0.3,0.7-0.4c0.2-0.1,0.5-0.3,0.7-0.4c0.5-0.3,0.9-0.6,1.3-0.8c0.2-0.1,0.4-0.3,0.6-0.4
									c0.2-0.1,0.4-0.3,0.6-0.4c0,0,0,0,0,0c16,22,39.2,40.8,71.8,40.8c32,0,55.8-19.6,72.8-42.7c2,1.9,4.4,3.6,7.2,5
									C320.1,370.5,321.2,372.2,322.6,374z" opacity=".3"></path><path fill="#451661" d="M386.4 356c-1.3 4.3-4 7.9-7.6 10.7l0 0c-11 8.4-30.8 10.2-46.8 6.7-2.7-.6-5.3-1.3-7.8-2.2-1.8-.6-3.4-1.4-5-2.2-2.8-1.4-5.3-3.1-7.2-5-1-.9-1.8-1.9-2.5-2.9-1.7-2.4-2.6-5.1-2.6-8 0-5.2 1.7-9 4.4-11.7.4 4.4 2 9.7 6.6 14.1 6.8 6.6 20 11 45.7 6.9 7.5-1.2 13.5-2.7 18.2-4.4C383.5 357.3 385 356.6 386.4 356zM375.9 150.7L375.9 150.7l-9.2 18.4c-2.1-3.4-4.5-7.1-7.3-10.9-.9-1.7-1.9-3.5-2.9-5.2-1.2-2-2.4-3.9-3.7-5.8 0 0 0 0 0 0-17-24.7-42.4-42.3-44-43.3 0 0-.1 0-.1 0l0 0 25.3-12.9c0 0 0 0 .1 0 .2 5.8 1.6 11.4 3.6 16.6 5.6 14.2 16.5 25.8 25.3 33.4C370.2 147.1 375.9 150.7 375.9 150.7zM250.7 91.2c-.2 0-.4 0-.6 0-3.1.2-6.2.5-9.3 1-.1 0-.2 0-.3 0-3.5.5-6.9 1.1-10.3 1.9-14.9 3.3-29 9-41.8 16.9-6.2 3.8-12.1 8.1-17.6 12.9l-.3-18.5c0-.7 0-1.4 0-2.1 6.5-.9 12.4-2 17.8-3.4 17.3-4.4 29-10.7 36.7-16.5 9.3-6.9 12.7-12.9 12.7-12.9L250.7 91.2z" opacity=".3"></path></g><g><path fill="#fff" d="M358.3 155.1c-15-19.8-40.1-42.1-79.9-50.1-1.5-.3-3.1-.6-4.6-.8.9 1.5 1.2 3.1 1.1 4.8-.7 6.9-11 11.5-23.1 10.3-12-1.2-21.3-7.8-20.6-14.7 0-.3.1-.6.2-.9-25 3.3-46.6 12.5-62.5 21.2.8-.7 1.5-1.3 2.3-2 0 0 .1-.1.2-.2 2.9-2.4 32.3-25.8 69.5-31.4.5-.1 1-.2 1.5-.2 2.7-.3 5.3-.6 8-.8.2 0 .5 0 .7 0 3-.2 6-.3 9.1-.3 18.1 0 34.5 4.8 49 12.9l0 0c0 0 26.6 17.9 44.1 43.5 0 0 0 0 0 0 1.2 1.9 2.4 3.9 3.5 5.9C357.2 153.2 357.8 154.2 358.3 155.1zM342.9 302.8C342.9 302.8 342.9 302.8 342.9 302.8c-.4 1.1-.8 2.3-1.3 3.5-1.3-.7-2.4-1.3-3.2-1.7-3.3-8.4-7.7-14.1-12.8-17.8-.4 6-7.9 10.9-17.1 10.9-9.5 0-17.1-5.1-17.1-11.3 0-.9.2-1.8.5-2.7-26.2 7.9-52.3 31.8-52.3 31.8-65.3-62.3-91.5-25-99.4-7.6-1-3.1-1.7-5.7-2.2-7.6v0c1.1-6.7 3.5-12.6 7.2-17.5.8-1.1 1.7-2.1 2.7-3.1.2-.2.5-.5.7-.7.2-.2.5-.5.8-.7.3-.2.5-.4.8-.7.3-.2.5-.4.8-.7.2-.2.4-.3.7-.5.2-.2.4-.3.7-.5.2-.2.4-.3.7-.5.2-.2.5-.3.7-.5.2-.2.5-.3.7-.4.2-.1.3-.2.5-.3.3-.2.6-.4.9-.5.3-.2.6-.3.9-.5.5-.2 1-.5 1.4-.7.3-.1.5-.2.8-.4 0 0 0 0 0 0 .3-.1.5-.2.8-.3.3-.1.5-.2.8-.3.3-.1.6-.2.8-.3.3-.1.6-.2.9-.3 1.4-.5 2.9-.9 4.4-1.3.6-.2 1.3-.3 1.9-.4.6-.1 1.2-.2 1.9-.3 0 0 0 0 0 0 .3 0 .6-.1 1-.1.3 0 .6-.1 1-.1 1.3-.1 2.6-.2 4-.3.9 0 1.9 0 2.9 0h.1c.5 0 .9 0 1.4 0 .4 0 .8 0 1.3.1.3 0 .6 0 .9.1.3 0 .6 0 .9.1.3 0 .6.1.9.1.6.1 1.2.1 1.8.2.3 0 .6.1.9.1.3 0 .6.1.9.2.2 0 .4.1.6.1.4.1.8.2 1.2.2.3.1.6.1.9.2.3.1.6.1 1 .2.3.1.5.1.8.2.7.2 1.4.4 2.1.6.3.1.6.2 1 .3.7.2 1.3.4 2 .6.3.1.6.2 1 .3.3.1.7.2 1 .4.6.2 1.1.4 1.7.7.2.1.3.1.5.2.2.1.5.2.8.3.7.3 1.4.6 2.1.9.3.1.6.3.9.4.7.3 1.3.6 2 1 .3.2.7.3 1 .5 1.3.7 2.7 1.5 4 2.3.3.2.5.3.8.5.4.3.9.6 1.3.9 1 .6 2 1.3 3 2 .3.2.6.4.9.6 1.1.8 2.1 1.6 3.2 2.4.4.3.8.6 1.2.9.4.3.8.6 1.2 1 .3.2.6.5.8.7.1.1.2.2.3.2 0 0 0 0 0 0 0 0 0 0 0 0 .1.1.2.2.3.3.3.3.7.6 1 .9.3.3.7.6 1 .9.3.3.7.6 1 .9.3.3.7.6 1 .9.3.3.7.6 1 1 .7.7 1.3 1.3 2 2 .3.3.7.7 1 1 .3.3.7.7 1 1.1.7.7 1.3 1.4 1.9 2.2.7.7 1.3 1.5 1.9 2.3.6.8 1.3 1.6 1.9 2.4 0 0 0 0 .1-.1 0 0 0-.1.1-.1 0-.1.1-.1.2-.2 0 0 0 0 0-.1.1-.1.1-.1.2-.2.1-.1.2-.2.3-.4.1-.1.2-.2.3-.3.1-.1.1-.1.2-.2.2-.2.4-.4.6-.7.3-.3.6-.6.9-1 .3-.4.7-.7 1.1-1.2.4-.4.8-.9 1.2-1.3.4-.5.9-.9 1.4-1.4.2-.2.5-.5.8-.8.8-.8 1.6-1.6 2.5-2.4.3-.3.6-.6.9-.9.6-.6 1.2-1.2 1.9-1.8.3-.3.7-.6 1-.9.3-.3.7-.6 1-.9.3-.3.7-.6 1-.9.7-.6 1.4-1.2 2.2-1.9.2-.2.4-.3.6-.5 0 0 0 0 0 0 .5-.5 1.1-.9 1.7-1.4.3-.2.5-.4.8-.7.2-.2.4-.3.6-.5.6-.5 1.3-1 1.9-1.5.5-.4.9-.7 1.4-1.1.4-.3.8-.6 1.2-.9h0c1.3-.9 2.5-1.9 3.9-2.8.4-.3.9-.6 1.3-.9 0 0 .1-.1.1-.1.3-.2.7-.4 1-.7.5-.3 1-.7 1.6-1 .5-.3.9-.6 1.4-.9.5-.3.9-.6 1.4-.8.5-.3.9-.5 1.4-.8.5-.3.9-.5 1.4-.8.5-.3.9-.5 1.4-.8.5-.2.9-.5 1.4-.7.5-.2 1-.5 1.4-.7.5-.2 1-.4 1.4-.7 0 0 0 0 0 0 .5-.2 1-.4 1.4-.6 0 0 .1 0 .1 0 .4-.2.9-.4 1.3-.5.5-.2 1-.4 1.5-.6.5-.2 1-.4 1.5-.5 1-.3 2-.6 2.9-.9.5-.1 1-.3 1.5-.4.5-.1 1-.2 1.4-.3 0 0 0 0 .1 0 .5-.1 1-.2 1.4-.3.5-.1 1-.2 1.5-.2 1-.2 2-.3 2.9-.3 2.6-.2 5.3-.1 7.8.2.4.1.8.1 1.2.2.8.2 1.6.3 2.4.6.4.1.8.2 1.2.3 0 0 0 0 .1 0 .4.1.8.2 1.1.4.4.1.8.3 1.2.5.4.2.8.3 1.2.5.4.2.8.4 1.2.6 1.5.8 3.1 1.8 4.5 2.9h0c.3.2.7.5 1 .8.3.3.6.5 1 .8.3.3.6.5.9.8.3.3.6.5.9.8.3.3.6.6.9.8.3.3.6.6.8.8.3.3.5.6.8.9 0 0 0 0 0 0 .3.3.5.6.8.9.5.6 1 1.2 1.5 1.8 0 0 0 0 0 0 .2.3.5.6.7.9.2.3.4.6.7 1 .2.3.4.6.6 1 0 0 0 0 0 0 .2.4.5.8.7 1.2.2.3.3.5.5.8 0 0 0 .1.1.1.2.3.4.6.5.9.1.1.1.3.2.4 0 .1.1.1.1.2.1.2.2.4.3.7.1.2.2.4.3.7.2.4.4.8.6 1.2 0 0 0 0 0 0 .1.3.3.7.4 1 0 0 0 .1 0 .1.1.3.3.7.4 1.1.1.4.3.7.4 1.1.1.4.3.7.4 1.1.1.4.2.7.4 1.1.1.3.2.7.3 1 0 .1 0 .2.1.2.1.3.2.7.3 1 .2.8.4 1.5.5 2.3.1.3.1.6.2.9 0 0 0 .1 0 .1 0 .1 0 .2 0 .2 0 .2.1.5.1.7.1.4.1.9.2 1.3.1.4.1.9.2 1.3 0 .1 0 .1 0 .2v0C342.8 302.2 342.8 302.5 342.9 302.8zM417 393.4c-6.6-5.5-16.8-12.3-25.3-10.6-11.2 2.3-21.2 12-25.5 23.8-.3-.5-.6-1-1-1.6.1-.5.2-1.1.3-1.6-.1.5-.2 1-.3 1.6-3.1-4.8-9.8-13.3-20.7-16.9-10.5-3.4-17.3-9.5-21.6-15.1.6-.9 1.1-1.9 1.7-2.8 2.4.9 5 1.6 7.8 2.2 6.3 9.9 24.7 5.1 34.8 25.3 4.8-14 14.5-23.6 25.7-23.6C403 374 411.8 381.7 417 393.4zM159.9 377.7c-2.3 2.8-6.7 6.9-13.8 7.6-10.7 1.1-24.6 1.2-28.8 9.8 0 0 0 0 0 .1.2.8 2 6.7 3.3 12.2 0 0 0 0 0 0 0 .2.1.5.1.7 0 .2.1.5.1.8.2 1.6.4 3.2.4 4.8 0 .6.1 1.1.1 1.7v.1c0 .6 0 1.2 0 1.8 0 0-8.9-42-44.5-36.5 4.5-4.3 9.9-6.9 15.6-6.9 7.5 0 14.3 4.2 19.4 11.2h0c19.3-17 29.9-2.6 40.8-13.5 1-.3 2.1-.6 3.1-.9C157.1 373.2 158.5 375.5 159.9 377.7zM376.2 149.6c0 0-.1-.1-.4-.3 8.5-20.4 16.5-46.6 4.3-55.1-8.9-6.2-27.5-4.1-45.2 0-.2-1.4-.3-2.9-.4-4.3 17.8-7.7 40.1-14.1 49.7-4C396.1 98.3 385.6 128.7 376.2 149.6zM238 69.6c0 0-.5.9-1.7 2.4-13.4-13.9-30.3-26.4-43.7-21.8-14.8 5-19.8 30.2-21.3 52.1-.2 0-.3 0-.5.1.6-23.6 4.5-56.8 21.8-62.6C208.5 34.3 226.1 53 238 69.6zM381.4 365.1c1.1-2.4 1.7-5.1 1.7-8.2 0-28.8-30.1-38-40.7-40.4.1-2.1.1-4.2.1-6.3 0 0 44.4 6.1 44.4 41.1C386.8 356.9 384.8 361.4 381.4 365.1zM136.6 317.5c-12.8 3.7-36.1 13.9-36.1 39.2 0 5.1 1.7 9.3 4.6 12.8-6.7-4.1-11-10.1-11-18.2 0-30.6 33.8-39.1 42.4-40.7C136.4 312.8 136.4 315.2 136.6 317.5z" opacity=".6"></path></g><g opacity=".3"><path fill="#6b184e" d="M121.2,380.5c0,0,54.2,67.7,119.2,67.7s110.1-64.5,110.1-64.5s-13.2-4-16.1-8.9l-9.9-3
								c0,0-42,64.9-84.3,64.9c-47.9,0-84.6-64.2-84.6-64.2S126.7,377.3,121.2,380.5z"></path><path fill="#451661" d="M240.4,448.7c-14.9,0-30.5-3.6-46.3-10.6c-12.6-5.6-25.4-13.5-38-23.3C134.7,398,121,381,120.9,380.8
								l-0.4-0.5l0.5-0.3c5.4-3.2,33.4-7.9,34.6-8.1l0.3-0.1l0.2,0.3c0.1,0.2,9.3,16.2,24.2,32c13.7,14.6,35.3,31.9,59.9,31.9
								c21.7,0,43.3-17.6,57.7-32.3c15.6-16,26.1-32.2,26.2-32.4l0.2-0.3l10.4,3.2l0.1,0.2c2.7,4.7,15.6,8.6,15.8,8.7l0.7,0.2
								l-0.4,0.6c-0.1,0.2-11.5,16.4-30.7,32.4c-11.3,9.4-23,16.9-34.9,22.3C270.4,445.3,255.3,448.7,240.4,448.7z M122,380.7
								c2.4,2.9,15.4,18.2,34.8,33.3c19.7,15.4,50.2,33.7,83.6,33.7c33.4,0,61.5-17.5,79.1-32.1c17.1-14.2,28-28.6,30.2-31.6
								c-2.7-0.9-12.8-4.4-15.6-8.7l-9.3-2.8c-1.6,2.4-11.7,17.4-26.2,32.2c-9.2,9.5-18.3,17-27.1,22.4c-11,6.8-21.5,10.2-31.3,10.2
								c-11,0-22.4-3.4-33.7-10.1c-9-5.4-18.1-12.8-26.9-22.2c-13.9-14.7-22.8-29.6-24.2-31.9C152.2,373.5,128,377.7,122,380.7z"></path></g><g><path fill="#f9a528" d="M377.4,217.6c-12,10.6-27.8,17.1-45.2,17.1c-37.7,0-68.3-30.6-68.3-68.3c0-28.4,17.3-52.7,41.9-63
								c1.9,0.9,3.7,1.9,5.6,2.9c5.7,3.2,11.1,6.9,16.2,11.1c12.7,10.5,23.3,23.7,31.4,38.3c3.4,6.1,6.3,12.4,8.8,18.8
								c4,10.3,6.8,20.9,8.4,31.5C376.8,209.9,377.2,213.8,377.4,217.6z"></path></g><g><path fill="#451661" d="M240.2,308.7C240.2,308.7,240.2,308.7,240.2,308.7c-1,0-1.9-0.5-2.5-1.2c-17.9-22.5-35.9-30.4-47.9-33
									c-14-3-27.8-0.5-37,6.7c-1.9,1.5-3.7,3.3-5.1,5.2c-0.6,0.8-1.6,1.3-2.7,1.3c-1,0-2-0.6-2.6-1.4
									c-10.9-16.4-23.2-38.7-21.4-66.2c1.2-18.9,5.9-36.9,13.8-53.4c7.6-15.8,18-29.8,30.8-41.7c12.7-11.7,27.2-20.8,43.3-27.1
									c16.3-6.4,33.5-9.7,51.1-9.7c17.2,0,33.7,4.2,48.9,12.4c14,7.6,26.5,18.3,37.3,31.8c10,12.6,18.2,27.6,23.7,43.3
									c5.5,15.5,8.4,31.8,8.4,47.1c0,33.2-11.6,61.9-33.5,82.8c-0.9,0.8-2.2,1.1-3.3,0.7c-1.1-0.4-2-1.4-2.1-2.6
									c-1.6-12.9-7.2-23-16.6-30.1c-12.7-9.6-29.9-7-51.1,7.6c-16.4,11.4-29,26-29.1,26.2C242.1,308.2,241.2,308.7,240.2,308.7z
									 M178.1,266.8c4.3,0,8.6,0.5,13,1.4c12.5,2.7,30.9,10.5,49.2,32.3c4.6-5,14.9-15.5,27.7-24.4c10.2-7.1,19.8-11.6,28.7-13.5
									c11.5-2.4,21.6-0.4,30.1,5.9c5.5,4.2,10,9.3,13.2,15.3c2.1,3.9,3.7,8.2,4.8,12.8c17.8-19.2,27.2-44.6,27.2-73.8
									c0-60.7-46-128.3-111.9-128.3c-71,0-128,54.1-132.6,125.8c-1.5,23.7,8.4,43.5,18,58.6c1.1-1.1,2.2-2.1,3.4-3
									c5.2-4,11.6-6.9,18.7-8.3C171,267.1,174.5,266.8,178.1,266.8z"></path><path fill="#451661" d="M267.3,250.2c-1.8,0-3.7-0.2-5.5-0.6c-9.6-2-13.7-7.8-15.5-12.4c0-0.1-0.1-0.1-0.1-0.2
									c-1.1,1.2-2.5,2.3-4.2,3.2c-4.9,2.7-11,3-17.9,0.9c-9.2-2.8-15.2-8.5-16.4-15.7c-0.9-5.5,1.2-10.8,5.6-14
									c1.4-1,3.4-0.7,4.5,0.7c1,1.4,0.7,3.4-0.7,4.5c-2.4,1.8-3.6,4.7-3.1,7.8c0.8,4.7,5.1,8.6,11.9,10.6
									c5.2,1.6,9.5,1.4,12.8-0.4c4.6-2.5,6-7.4,6-7.5c0.4-1.6,2-2.6,3.6-2.3c1.6,0.3,2.8,1.8,2.6,3.5c0,0-0.2,3.3,1.2,6.8
									c1.8,4.4,5.4,7.2,10.7,8.3c6.5,1.3,13-0.5,16.4-4.7c2.2-2.8,2.7-6,1.4-9.2c-0.7-1.6,0.1-3.5,1.7-4.2
									c1.6-0.7,3.5,0.1,4.2,1.7c2.3,5.4,1.5,11.1-2.3,15.8c-2.4,2.9-5.7,5.1-9.6,6.4C272.5,249.9,269.9,250.2,267.3,250.2z"></path><path fill="#451661" d="M239.2 279.2c-.9 0-1.8-.1-2.6-.2-3.7-.6-6.7-2.5-9-5.7-3-4.2-4.5-10.6-4.5-18.9 0-6.6.9-12.9 1.5-16.1.3-1.7 2-2.9 3.7-2.6 1.7.3 2.9 2 2.6 3.7-1.9 10.7-2.4 24.2 1.9 30.2 1.2 1.7 2.8 2.7 4.8 3.1.5.1 1 .1 1.5.1 6.1 0 11-6.4 14.1-12 4-7.2 6.1-15 6.1-15.1.5-1.7 2.2-2.7 3.9-2.3 1.7.5 2.7 2.2 2.3 3.9-.1.3-2.3 8.5-6.6 16.4C252.2 276.2 244.9 279.2 239.2 279.2zM250.2 228.5c-.6 0-1.3-.1-1.9-.2-2.9-.5-5.8-2.8-8-6.4-1.9-3-3.2-6.7-3.4-9.7-.4-5.5 2.6-7.1 4-7.5l0 0c6.7-2.2 14.3-1.4 20.4 2.3 3.5 2.1 5.7 4.6 6.1 7 .5 3.2-2.3 6.5-4 8.2C260.2 225.2 255.1 228.5 250.2 228.5zM242.5 209.6c-.2.1-.5.8-.4 2.2.3 4.7 4.2 10.8 7.2 11.4 2.4.4 5.9-.9 9.1-3.5 2.7-2.2 3.9-4.2 3.9-4.9-.1-.5-1.3-2.1-4.1-3.6C255.9 209.9 249.8 207.2 242.5 209.6L242.5 209.6zM293.8 211.6c-.8 0-1.6-.3-2.2-.9-1.3-1.2-1.3-3.3-.1-4.5.6-.7 15.3-16 30.4-10 1.7.7 2.5 2.5 1.8 4.2-.7 1.7-2.5 2.5-4.2 1.8-11.1-4.4-23.3 8.3-23.4 8.5C295.5 211.3 294.7 211.6 293.8 211.6zM216.3 194.7c-1.4 0-2.6-.9-3.1-2.2 0-.1-1.4-4.1-4.7-8.1-4.3-5.2-9.7-8.1-16.2-8.5-1.8-.1-3.1-1.6-3-3.4.1-1.8 1.6-3.1 3.4-3 8.3.6 15.5 4.4 20.9 11.1 4 5 5.6 9.8 5.6 10 .5 1.7-.4 3.5-2.1 4C216.9 194.7 216.6 194.7 216.3 194.7z"></path><path fill="#451661" d="M240.2,439.9c-10,0-20.3-2.6-30.6-7.9c-9.5-4.8-18.8-11.6-27.8-20.3C171,401.2,161,388.2,152.9,374
									c-0.5-0.8-0.6-1.9-0.2-2.8c0.4-0.9,1.1-1.6,2-1.9c7.1-2.3,12.4-5.6,15.1-9.5c1.4-2,2-4,2-6.2c0-4.4-1.3-7.6-4-9.9
									c-4.8-4.1-14.4-5.2-26.4-3.2c-1.6,0.3-3.2-0.7-3.6-2.3c-2.8-10.1-4.1-19.7-3.8-28.3c0.3-11.1,3.2-20.3,8.6-27.4
									c1.8-2.4,3.9-4.5,6.3-6.4c5.2-4,11.6-6.9,18.7-8.3c7.5-1.5,15.5-1.4,23.6,0.4c12.5,2.7,30.9,10.5,49.2,32.3
									c4.6-5,14.9-15.5,27.7-24.4c10.2-7.1,19.8-11.6,28.7-13.5c11.5-2.4,21.6-0.4,30.1,5.9c5.5,4.2,10,9.3,13.2,15.3
									c3,5.6,5,12.1,5.9,19.1c0.3,2.1,0.4,4.3,0.5,6.5c0.3,8.8-1,18.3-3.8,28.3c-0.4,1.6-2,2.6-3.6,2.3c-6.6-1-18.5-1.8-24.6,3.6
									c-2.6,2.3-3.9,5.5-3.9,9.8c0,2.2,0.7,4.2,2,6.2c2.4,3.6,7,6.6,13.2,8.9c0.9,0.3,1.6,1,1.9,1.9c0.3,0.9,0.2,1.9-0.2,2.7
									c-8.2,14.2-18.6,27.5-29.9,38.3c-9.1,8.7-18.4,15.5-27.8,20.3C259.5,437.2,249.6,439.9,240.2,439.9z M160.4,374.1
									c7.4,12.4,16.3,23.7,25.9,33c12.4,12,31.8,26.3,54,26.3c16.2,0,35-9.4,52.8-26.4c10-9.6,19.3-21.2,26.9-33.7
									c-5.7-2.6-10-5.9-12.7-9.8c-2.1-3-3.2-6.3-3.2-9.9c0-6.2,2.1-11.2,6.1-14.7c6.9-6,18-6.4,26.9-5.4
									c2.1-8.4,3.1-16.4,2.9-23.7c-0.1-2-0.2-4-0.4-5.9c-1.6-12.9-7.2-23.1-16.6-30.1c-31-23.3-79.8,33.2-80.2,33.8
									c-0.6,0.7-1.5,1.1-2.5,1.1c-1,0-1.9-0.5-2.5-1.2c-17.9-22.5-35.9-30.4-47.9-33c-14-3-27.8-0.5-37,6.7
									c-1.9,1.5-3.7,3.3-5.1,5.2c-4.6,6-7,14-7.3,23.7c-0.2,7.2,0.8,15.2,2.9,23.6c8.4-1.1,21.1-1.4,28.7,5
									c4.2,3.5,6.3,8.5,6.3,14.8c0,3.5-1.1,6.8-3.2,9.9C172.1,367.8,167.1,371.5,160.4,374.1z"></path><path fill="#451661" d="M357.8,343c-0.7-0.2-1.5-0.3-2.3-0.4c-0.2,0-0.4-0.1-0.6-0.1l-0.6-0.1l-1.2-0.1
									c-1.6-0.2-3.2-0.4-4.8-0.5c-1.6-0.2-3.2-0.3-4.7-0.6c-0.8-0.1-1.5-0.3-2.3-0.4c-0.8-0.2-1.5-0.4-2.3-0.7l-0.1,0
									c-1.6-0.6-2.4-2.4-1.7-4c0.5-1.2,1.6-1.9,2.7-1.9c0.9,0,1.7,0,2.6,0.1c0.8,0.1,1.7,0.3,2.5,0.5c1.6,0.4,3.2,1,4.8,1.7
									c1.6,0.7,3.1,1.5,4.6,2.4c0.4,0.2,0.7,0.5,1.1,0.7c0.4,0.3,0.7,0.5,1.1,0.8c0.2,0.1,0.3,0.3,0.5,0.4
									c0.2,0.2,0.3,0.3,0.5,0.5c0.2,0.2,0.3,0.3,0.5,0.5c0.2,0.2,0.3,0.4,0.4,0.6c0.1,0.2,0.1,0.5-0.1,0.6
									C358.1,343,358,343,357.8,343L357.8,343z"></path><path fill="#451661" d="M348.3 378.8c-5.6 0-11.3-.6-16.6-1.7-2.9-.6-5.6-1.4-8.2-2.3-7.4-2.7-13.1-6.6-16.3-11.3-2.1-3-3.2-6.3-3.2-9.9 0-6.2 2.1-11.2 6.1-14.7 6.9-6 18-6.4 26.9-5.4 2.1-8.4 3.1-16.4 2.9-23.7 0-.9.4-1.9 1.1-2.5.7-.6 1.6-.9 2.6-.8.5.1 11.8 1.7 23.3 7.8 15.6 8.3 23.9 20.9 23.9 36.5 0 7.3-3.1 13.7-9.1 18.5-5.6 4.5-13.6 7.6-23.2 8.9C355.1 378.6 351.7 378.8 348.3 378.8zM329.9 339.6c-5.6 0-11.7.9-15.5 4.3-2.6 2.3-3.9 5.5-3.9 9.8 0 2.2.7 4.2 2 6.2 2.4 3.6 7 6.6 13.2 8.9 2.3.8 4.8 1.5 7.3 2.1 5.1 1.1 10.3 1.6 15.3 1.6 11.8 0 22.7-2.9 29.3-8.2 4.4-3.6 6.7-8.1 6.7-13.5 0-13.2-6.9-23.6-20.5-30.8-6.7-3.6-13.4-5.5-17.4-6.4-.2 7.6-1.5 15.8-3.8 24.3-.4 1.6-2 2.6-3.6 2.3C336.5 339.9 333.3 339.6 329.9 339.6zM141.4 340.4c-.7.3-1.3.5-2 .7-.7.2-1.4.3-2.1.4-1.4.2-2.8.4-4.2.5l-4.3.4-1.1.1-.5.1c-.2 0-.4 0-.5.1-.2 0-.4 0-.5.1-.2 0-.4 0-.5.1-.2 0-.3.1-.5.1-.2 0-.3.1-.5.1l-.1 0c-.2 0-.5-.1-.5-.4 0-.1 0-.2.1-.3.1-.2.2-.4.4-.5.1-.2.3-.3.4-.5.1-.1.3-.3.4-.4.1-.1.3-.3.4-.4.3-.3.6-.5.9-.8.3-.2.6-.5 1-.7 1.3-.9 2.7-1.6 4.1-2.3 1.4-.7 2.8-1.3 4.3-1.7.7-.2 1.5-.4 2.2-.5.8-.1 1.5-.2 2.3-.2 1.7.1 3 1.5 3 3.2 0 1.2-.8 2.2-1.8 2.7L141.4 340.4z"></path><path fill="#451661" d="M134 378.9c-2.8 0-5.6-.1-8.3-.4-10.1-1.1-18.6-4.1-24.6-8.7-6.3-4.8-9.6-11.4-9.6-18.9 0-7.7 2-14.7 5.9-20.8 3.2-5 7.8-9.4 13.5-13.1 10-6.5 21.2-9.1 25.5-10 1-.2 1.9.1 2.7.7.7.6 1.2 1.6 1.1 2.5-.2 7.2.8 15.2 2.9 23.6 8.4-1.1 21.1-1.4 28.7 5 4.2 3.5 6.3 8.5 6.3 14.8 0 3.5-1.1 6.8-3.2 9.9-3.5 5.1-9.9 9.3-18.4 12-1 .3-2.1.6-3.2.9C147.4 378 140.7 378.9 134 378.9zM133.9 314c-11.9 3-36 12.1-36 36.7 0 5.5 2.4 10.2 7.1 13.8 11.4 8.8 32.1 9.4 46.8 5.6 1-.3 2-.5 2.9-.8 7.1-2.3 12.4-5.6 15.1-9.5 1.4-2 2-4 2-6.2 0 0 0 0 0 0 0-4.4-1.3-7.6-4-9.9-4.8-4.1-14.4-5.2-26.4-3.2-1.6.3-3.2-.7-3.6-2.3C135.4 329.7 134.1 321.6 133.9 314zM392.9 465.6c-.4 0-.9 0-1.4 0-1.7-.1-3-1.4-3-3.1-.1-1.7 1.2-3.1 2.8-3.3 3.8-.5 6.2-.8 7.1-1 .2 0 .4-.1.4-.1 1.6-.2 3.2.8 3.5 2.5.4 1.6-.5 3.2-2.1 3.8C397.9 465.2 395.4 465.6 392.9 465.6z"></path><path fill="#451661" d="M391.7,465.5c-1.8,0-3.2-1.4-3.2-3.2c0-1.7,1.3-3.1,2.9-3.2c3.7-0.5,6.1-0.8,7-0.9c0,0,0.1,0,0.1,0
									c11.6-4.1,20.1-20.5,20.1-39.2c0-11-2.8-21.2-7.9-28.9c-4.8-7.3-11.2-11.3-17.8-11.3c-9,0-17.6,7.7-22.2,20
									c-0.6,1.7-2.5,2.5-4.1,1.9c-1.7-0.6-2.5-2.5-1.9-4.1c2.7-7.1,6.6-13,11.3-17.3c5.1-4.5,10.9-6.9,16.9-6.9
									c8.8,0,17,5,23.1,14.1c5.8,8.7,9,20.2,9,32.4c0,10.6-2.4,20.5-6.8,28.8c-4.5,8.3-10.8,14.2-17.9,16.6
									c-0.1,0-0.2,0.1-0.3,0.1c-0.1,0-0.3,0.1-0.4,0.1c-0.1,0-0.2,0-0.4,0.1c-0.9,0.1-3.4,0.5-7.2,1
									C391.9,465.5,391.8,465.5,391.7,465.5z M399.3,464.5C399.3,464.5,399.3,464.5,399.3,464.5
									C399.3,464.5,399.3,464.5,399.3,464.5z M400.3,464.3C400.3,464.3,400.3,464.4,400.3,464.3
									C400.3,464.4,400.3,464.3,400.3,464.3z"></path><path fill="#451661" d="M362.9,423.5c-0.6-2.1-0.9-4.2-1-6.3c-0.2-2.1-0.2-4.2-0.1-6.4c0.1-2.1,0.2-4.2,0.6-6.4
									c0.1-0.5,0.2-1.1,0.3-1.6c0.1-0.3,0.1-0.5,0.2-0.8l0.2-0.8c0.3-1,0.7-2.1,1.2-3.1c0.8-1.5,2.6-2.1,4.1-1.3
									c1.2,0.6,1.8,1.8,1.6,3.1l0,0.2c-0.1,0.5-0.2,0.9-0.2,1.4c-0.1,0.5-0.2,0.9-0.3,1.4l-0.3,1.4l-0.4,1.4
									c-0.5,1.9-1.1,3.8-1.6,5.8l-1.7,5.9l-1.7,6l0,0c-0.1,0.2-0.3,0.4-0.6,0.3C363.1,423.8,362.9,423.7,362.9,423.5z"></path><path fill="#451661" d="M240.2,439.9c-10,0-20.3-2.6-30.6-7.9c-9.5-4.8-18.8-11.6-27.8-20.3c-10.3-10-19.8-22.2-27.6-35.5
									c-5.6,5.1-11.3,5-16.8,4.8c-6.7-0.2-13.7-0.4-23.5,8.2c-1.3,1.2-3.4,1-4.5-0.3c-1.2-1.3-1-3.4,0.3-4.5
									c11.7-10.3,20.7-10,27.9-9.8c5.4,0.2,8.9,0.3,12.7-3.6c0.4-0.4,0.9-0.7,1.5-0.8c1-0.3,2-0.5,2.9-0.8c1.4-0.5,3,0.1,3.8,1.5
									c7.8,13.6,17.4,26.2,27.8,36.3c12.4,12,31.8,26.3,54,26.3c16.2,0,35-9.4,52.8-26.4c10.9-10.4,20.8-23.2,28.8-36.9
									c0.8-1.4,2.4-1.9,3.9-1.4c2.3,0.8,4.8,1.5,7.3,2.1c0.8,0.2,1.6,0.7,2,1.4c2,3.1,5.8,4.4,10.6,6.1
									c7.9,2.8,17.7,6.3,24.4,19.4c0.8,1.6,0.2,3.5-1.4,4.3c-1.6,0.8-3.5,0.2-4.3-1.4c-5.5-10.8-13.2-13.6-20.8-16.2
									c-5.1-1.8-9.9-3.5-13.1-7.6c-1.5-0.4-3-0.8-4.4-1.2c-8,13.4-17.8,25.8-28.5,36.1c-9.1,8.7-18.4,15.5-27.8,20.3
									C259.5,437.2,249.6,439.9,240.2,439.9z"></path><path fill="#451661" d="M114.4,385c2.1,2.3,3.7,5,4.9,7.8c1.2,2.8,2,5.7,2.6,8.7c0.5,2.9,0.8,5.9,0.8,8.9c0,3-0.3,5.9-0.9,8.7
									c-0.1,0.3-0.3,0.4-0.6,0.4c-0.2,0-0.3-0.2-0.4-0.4l0,0c-0.6-2.8-1.2-5.6-2-8.2c-0.8-2.7-1.6-5.3-2.6-7.8
									c-1-2.5-2.1-4.9-3.3-7.3c-0.1-0.3-0.3-0.6-0.5-0.9l-0.5-0.9c-0.1-0.3-0.3-0.6-0.5-0.9l-0.5-0.9c-0.3-0.6-0.6-1.1-1-1.7
									c-0.2-0.3-0.3-0.6-0.5-0.9l-0.2-0.4c-0.1-0.1-0.2-0.3-0.2-0.4l-0.1-0.2c-0.8-1.6-0.2-3.5,1.4-4.3
									C111.9,383.6,113.5,383.9,114.4,385z"></path><path fill="#451661" d="M238.9 474.9c-42.8 0-136.2-8.9-143.1-9.5-1.1.2-2.2.2-3.3.2-8.8 0-17-5-23.1-14.1-5.8-8.7-9-20.2-9-32.4 0-12.2 3.2-23.7 9-32.4 6.1-9.1 14.3-14.1 23.1-14.1 8 0 15.7 4.2 21.5 11.9 1.1 1.4.8 3.4-.6 4.5-1.4 1.1-3.4.8-4.5-.6-4.6-6.1-10.5-9.4-16.4-9.4-6.6 0-12.9 4-17.8 11.3-5.1 7.7-7.9 17.9-7.9 28.9 0 11 2.8 21.2 7.9 28.9 4.8 7.3 11.2 11.3 17.8 11.3.9 0 1.8-.1 2.7-.2.3 0 .6-.1.8 0 1 .1 99 9.5 142.9 9.5.1 0 .2 0 .3 0h.6c0 0 0 0 0 0 .8 0 1.7 0 2.5 0 70.9-.2 127.8-6.6 149-9.3 1.8-.2 3.4 1 3.6 2.8.2 1.8-1 3.4-2.8 3.6-21.3 2.7-78.5 9.1-149.8 9.4-.8 0-1.7 0-2.6 0h-.6C239.1 474.9 239 474.9 238.9 474.9zM365.4 175.9c-.5 0-1.1-.1-1.6-.4-1.5-.9-2.1-2.8-1.2-4.4.1-.2 9.4-16.4 16.2-34.8 4-10.7 6.4-19.9 7.1-27.5.9-8.9-.5-15.3-4.2-19-3.2-3.4-8.7-4.7-16.4-4-6.6.6-14.8 2.8-24.1 6.4-16.2 6.3-30.5 14.9-30.6 15-1.5.9-3.5.4-4.4-1.1-.9-1.5-.4-3.5 1.1-4.4.6-.4 14.9-9 31.6-15.5 23.4-9.1 39.4-9.4 47.6-.9 8.8 9.1 8.2 27.1-1.6 53.3-7.1 18.9-16.3 35-16.7 35.7C367.6 175.3 366.5 175.9 365.4 175.9z"></path><path fill="#451661" d="M356.6 157.1c-.6 0-1.2-.2-1.7-.5-1.5-.9-2-2.9-1.1-4.4.1-.1 5.6-9.2 9.9-19.5 5.1-12.2 6.2-21.2 3.1-24.5-4.9-5.2-15.1-2.5-22.8.8-9.1 3.8-17 9.2-17 9.2-1.5 1-3.5.6-4.5-.8-1-1.5-.6-3.5.8-4.5.3-.2 8.4-5.8 18.1-9.9 5.9-2.4 11.1-3.8 15.6-4.1 6.2-.4 11 1.2 14.4 4.9 3 3.2 4.1 8.2 3.2 14.7-.7 4.7-2.3 10.3-5 16.7-4.5 10.7-10.1 19.9-10.3 20.3C358.8 156.5 357.7 157.1 356.6 157.1zM171.1 127.7c-1.7 0-3.1-1.3-3.2-3-.4-7.4-1-26.6 1.5-44.9 3.3-23.7 10.8-37.7 22.1-41.5 11.6-3.9 24.9 2.5 39.5 19.1 10.9 12.4 19.6 27.2 22.7 32.9.9 1.6.3 3.5-1.3 4.4-1.6.9-3.5.3-4.4-1.3-3.1-5.6-11.4-19.8-21.9-31.8-5.9-6.7-11.5-11.6-16.7-14.6-5.9-3.4-11.2-4.2-15.9-2.7-8.8 3-14.9 15.5-17.8 36.3-2.5 17.7-1.9 36.4-1.5 43.6.1 1.8-1.3 3.3-3 3.4C171.2 127.7 171.1 127.7 171.1 127.7z"></path><path fill="#451661" d="M188.7 114.8c-1.7 0-3.2-1.4-3.2-3.1-.1-3-.5-13.5.8-24.1.8-6.4 2-11.7 3.7-15.9 2.3-5.6 5.5-9.2 9.4-10.7 4.1-1.5 8.3-1 12.6 1.7 3.2 2 6.4 5.2 9.6 9.5 5.5 7.4 9.6 16.4 11.6 20.8l.2.4c.7 1.6 0 3.5-1.6 4.3-1.6.7-3.5 0-4.3-1.6l-.2-.4c-1.9-4.1-5.9-12.8-11-19.7-5.6-7.6-10.5-10.6-14.8-9-4.3 1.6-7.5 9.2-9 21.3-1.3 10.5-.8 21.1-.7 23.1 0 .1 0 .1 0 .2C191.9 113.4 190.5 114.8 188.7 114.8zM383.7 244c-.6 0-1.2-.2-1.7-.5-8.8-5.4-20.5-2.8-20.7-2.8-1.7.4-3.5-.7-3.9-2.4-.4-1.7.7-3.5 2.4-3.9.6-.1 14.4-3.3 25.5 3.6 1.5.9 2 2.9 1 4.4C385.8 243.5 384.8 244 383.7 244zM151.6 179.6c-1.1 0-2.2-.6-2.8-1.6-.1-.2-8.4-13.8-18.9-14.3-1.8-.1-3.1-1.6-3-3.4.1-1.8 1.6-3.1 3.4-3 14 .7 23.7 16.7 24.1 17.4.9 1.5.4 3.5-1.1 4.4C152.8 179.5 152.2 179.6 151.6 179.6zM138.4 201.7c0 0-1.9-2.2-5.8-4.2-5.2-2.6-11.2-3.6-18-2.8-1.8.2-3.4-1.1-3.5-2.8-.2-1.8 1.1-3.4 2.8-3.5 19.8-2.2 29.1 8.8 29.4 9.3L138.4 201.7 138.4 201.7zM112 227.3c-.9 0-1.8-.4-2.5-1.2-1.1-1.4-.9-3.4.4-4.5 11-9.1 26.1-6.3 26.8-6.2 1.7.3 2.9 2 2.5 3.8-.3 1.7-2 2.9-3.8 2.6-.2 0-12.9-2.3-21.4 4.8C113.4 227.1 112.7 227.3 112 227.3zM376.2 274.1c-1.1 0-2.2-.6-2.8-1.6-5.3-8.8-14.9-9.3-16.7-9.3-1.8 0-3.2-1.4-3.2-3.2s1.4-3.2 3.2-3.2c7.2 0 16.8 3.3 22.2 12.4.9 1.5.4 3.5-1.1 4.4C377.3 273.9 376.8 274.1 376.2 274.1zM359.9 217.9c-.9 0-1.8-.4-2.5-1.2-1.1-1.4-.9-3.4.4-4.5.6-.5 15.1-12.3 28.6-8.3 1.7.5 2.7 2.3 2.2 4-.5 1.7-2.3 2.7-4 2.2-8.4-2.5-19.2 4.3-22.6 7.1C361.3 217.6 360.6 217.9 359.9 217.9z"></path></g><g><path fill="#ec187c" d="M74.3,106.3c-4.3-1.6-9.1-1.4-13.1,0.7c-6.2,3.1-5,10.9-5,10.9s-4.6-6.4-11.2-4.3
									c-4.4,1.4-8,4.5-9.9,8.7c-1.9,4.1-2.8,10,2.5,16.6c3,3.7,7.1,6.3,11.6,7.8c5.2,1.7,13.4,3.7,19.4,3c0.1,0,0.3,0,0.4-0.1
									c0.1-0.1,0.2-0.1,0.3-0.2c4.8-3.6,9.2-10.8,11.8-15.6c2.2-4.2,3.3-8.9,2.9-13.6C83.3,111.6,78.5,107.9,74.3,106.3z"></path><path fill="#880e4f" d="M84,120c-0.8-8.4-5.5-12.1-9.7-13.7c-1.1-0.4-2.2-0.7-3.4-0.9c2.7,2.2,5,5.7,5.6,11.3
									c0.4,4.7-0.7,9.5-2.9,13.6c-2.6,4.8-7,12-11.8,15.6c-0.1,0.1-0.2,0.2-0.3,0.2c-0.1,0-0.2,0-0.4,0.1
									c-5.4,0.7-12.5-0.9-17.7-2.4c1.8,1.1,3.8,2.1,5.9,2.7c5.2,1.7,13.4,3.7,19.4,3c0.1,0,0.3,0,0.4-0.1c0.1-0.1,0.2-0.1,0.3-0.2
									c4.8-3.6,9.2-10.8,11.8-15.6C83.4,129.4,84.5,124.7,84,120z" opacity=".2"></path><ellipse cx="45.1" cy="127.2" fill="#fff" opacity=".4" rx="7.5" ry="4.5" transform="rotate(-56.755 45.055 127.176)"></ellipse><g><path fill="#ec187c" d="M26.2,201.4c-2.4-0.9-5-0.8-7.3,0.4c-3.4,1.7-2.8,6.1-2.8,6.1s-2.5-3.6-6.2-2.4
									c-2.4,0.8-4.4,2.5-5.5,4.8c-1.1,2.3-1.5,5.6,1.4,9.2c1.7,2.1,3.9,3.5,6.4,4.3c2.9,0.9,7.5,2.1,10.8,1.6c0.1,0,0.1,0,0.2,0
									c0.1,0,0.1-0.1,0.2-0.1c2.7-2,5.1-6,6.6-8.7c1.3-2.3,1.9-5,1.6-7.6C31.1,204.3,28.5,202.3,26.2,201.4z"></path><path fill="#880e4f" d="M31.6,209c-0.4-4.7-3.1-6.7-5.4-7.6c-0.6-0.2-1.2-0.4-1.9-0.5c1.5,1.2,2.8,3.2,3.1,6.3
									c0.2,2.6-0.4,5.3-1.6,7.6c-1.4,2.7-3.9,6.7-6.6,8.7c-0.1,0-0.1,0.1-0.2,0.1c-0.1,0-0.1,0-0.2,0c-3,0.4-7-0.5-9.8-1.4
									c1,0.6,2.1,1.1,3.3,1.5c2.9,0.9,7.5,2.1,10.8,1.6c0.1,0,0.1,0,0.2,0c0.1,0,0.1-0.1,0.2-0.1c2.7-2,5.1-6,6.6-8.7
									C31.2,214.2,31.8,211.6,31.6,209z" opacity=".2"></path><ellipse cx="9.9" cy="213" fill="#fff" opacity=".4" rx="4.2" ry="2.5" transform="rotate(-56.755 9.868 212.983)"></ellipse></g></g><g><path fill="#ec187c" d="M437.7,157.7c4.3-1.6,9.1-1.4,13.1,0.7c6.2,3.1,5,10.9,5,10.9s4.6-6.4,11.2-4.3c4.4,1.4,8,4.5,9.9,8.7
									c1.9,4.1,2.8,10-2.5,16.6c-3,3.7-7.1,6.3-11.6,7.8c-5.2,1.7-13.4,3.7-19.4,3c-0.1,0-0.3,0-0.4-0.1c-0.1-0.1-0.2-0.1-0.3-0.2
									c-4.8-3.6-9.2-10.8-11.8-15.6c-2.2-4.2-3.3-8.9-2.9-13.6C428.7,163,433.5,159.3,437.7,157.7z"></path><path fill="#6b184e" d="M476.9,173.6c-1.6-3.4-4.3-6.1-7.7-7.7c0.6,0.8,1.2,1.7,1.6,2.7c1.9,4.1,2.8,10-2.5,16.6
									c-3,3.7-7.1,6.3-11.6,7.8c-5,1.6-12.8,3.6-18.7,3c1.5,1.8,3.1,3.5,4.7,4.7c0.1,0.1,0.2,0.2,0.3,0.2c0.1,0,0.2,0,0.4,0.1
									c6,0.8,14.2-1.3,19.4-3c4.5-1.4,8.6-4.1,11.6-7.8C479.6,183.7,478.8,177.7,476.9,173.6z" opacity=".2"></path><ellipse cx="440.7" cy="167.5" fill="#fff" opacity=".4" rx="7.5" ry="4.5" transform="rotate(-26.376 440.678 167.505)"></ellipse><g><path fill="#ec187c" d="M485.8,252.8c2.4-0.9,5-0.8,7.3,0.4c3.4,1.7,2.8,6.1,2.8,6.1s2.5-3.6,6.2-2.4c2.4,0.8,4.4,2.5,5.5,4.8
									c1.1,2.3,1.5,5.6-1.4,9.2c-1.7,2.1-3.9,3.5-6.4,4.3c-2.9,0.9-7.5,2.1-10.8,1.6c-0.1,0-0.1,0-0.2,0c-0.1,0-0.1-0.1-0.2-0.1
									c-2.7-2-5.1-6-6.6-8.7c-1.3-2.3-1.9-5-1.6-7.6C480.9,255.7,483.5,253.7,485.8,252.8z"></path><path fill="#6b184e" d="M507.7,261.6c-0.9-1.9-2.3-3.3-4.1-4.3c0,0.1,0.1,0.1,0.1,0.2c1.1,2.3,1.5,5.6-1.4,9.2
									c-1.7,2.1-3.9,3.5-6.4,4.3c-2.9,0.9-7.4,2.1-10.7,1.6c1.1,1.5,2.3,2.9,3.6,3.9c0.1,0,0.1,0.1,0.2,0.1c0.1,0,0.1,0,0.2,0
									c3.3,0.4,7.9-0.7,10.8-1.6c2.5-0.8,4.8-2.3,6.4-4.3C509.2,267.2,508.7,263.9,507.7,261.6z" opacity=".2"></path><path fill="#fff" d="M490.9,256.9c-0.5-1.3-2.6-1.7-4.8-0.9c-2.2,0.8-3.5,2.5-3.1,3.8c0.5,1.3,2.6,1.7,4.8,0.9
									C490,259.9,491.4,258.2,490.9,256.9z" opacity=".4"></path></g></g></svg>