<svg xmlns="http://www.w3.org/2000/svg" width="24" height="24" fill="none" viewBox="0 0 24 24" id="heart-eyes-cat"><path fill="#FCCC4E" fill-rule="evenodd" d="M16.8207 4.84678C16.4264 5.25082 15.5475 6.25085 15.113 7.53007C14.1886 7.19233 13.1469 6.99699 12 6.99699C10.8531 6.99699 9.81135 7.19233 8.88696 7.53006C8.45255 6.25084 7.57363 5.25082 7.17932 4.84678C7.08362 4.74872 6.92641 4.78264 6.87837 4.91096C6.63524 5.56048 6.03618 7.35308 5.98367 9.37084C4.69869 10.658 4 12.2811 4 13.747C4 15.997 6 17.997 12 17.997C18 17.997 20 15.997 20 13.747C20 12.2811 19.3013 10.658 18.0163 9.37085C17.9638 7.35308 17.3648 5.56048 17.1216 4.91096C17.0736 4.78264 16.9164 4.74872 16.8207 4.84678Z" clip-rule="evenodd"></path><path fill="#fff" d="M16 16.5617C16 17.789 15 17.8799 12 17.8799C9 17.8799 8 17.789 8 16.5617C8 13.9048 10 11.8799 12 11.8799C14 11.8799 16 13.9048 16 16.5617Z"></path><path fill="#EB5757" fill-rule="evenodd" d="M16 14.48C16.5523 14.48 17 14.2561 17 13.98C17 13.7038 16.5523 13.48 16 13.48C15.4477 13.48 15 13.7038 15 13.98C15 14.2561 15.4477 14.48 16 14.48ZM8 14.48C8.55228 14.48 9 14.2561 9 13.98C9 13.7039 8.55228 13.48 8 13.48C7.44772 13.48 7 13.7039 7 13.98C7 14.2561 7.44772 14.48 8 14.48Z" clip-rule="evenodd"></path><path fill="#FF5887" fill-rule="evenodd" d="M6.93141 10.7815C7.30676 10.4062 7.91531 10.4062 8.29066 10.7815C8.666 10.4062 9.27456 10.4062 9.6499 10.7815C10.0252 11.1569 10.0252 11.7654 9.6499 12.1408L9.64617 12.1445L8.29064 13.5L6.9314 12.1407C6.55607 11.7654 6.55607 11.1569 6.93141 10.7815ZM14.3316 10.7815C14.7069 10.4062 15.3155 10.4062 15.6908 10.7815C16.0661 10.4062 16.6747 10.4062 17.0501 10.7815C17.4254 11.1569 17.4254 11.7654 17.0501 12.1408L17.0463 12.1445L15.6908 13.5L14.3315 12.1407C13.9562 11.7654 13.9562 11.1569 14.3316 10.7815Z" clip-rule="evenodd"></path><path fill="#000" fill-rule="evenodd" d="M7.35836 4.6752C7.13323 4.44451 6.75588 4.52843 6.64436 4.82634C6.38595 5.51666 5.7301 7.48037 5.7301 9.65528C5.7301 9.79335 5.84203 9.90528 5.9801 9.90528C6.11817 9.90528 6.2301 9.79335 6.2301 9.65528C6.2301 7.66518 6.80504 5.84677 7.07546 5.10243C7.5218 5.57425 8.3892 6.61797 8.73888 7.90276C8.77514 8.03598 8.91253 8.11459 9.04576 8.07833C9.17898 8.04207 9.25759 7.90467 9.22133 7.77145C8.8168 6.28512 7.79212 5.11967 7.35836 4.6752ZM11.7501 7.2532C11.582 7.25764 11.4153 7.26654 11.2501 7.27975V8.24991C11.2501 8.38798 11.1382 8.49991 11.0001 8.49991C10.8621 8.49991 10.7501 8.38798 10.7501 8.24991V7.33348C10.344 7.38838 9.94867 7.4696 9.56659 7.57497C9.43348 7.61168 9.29583 7.53353 9.25912 7.40043C9.22241 7.26733 9.30055 7.12967 9.43366 7.09296C10.2419 6.87005 11.1047 6.74991 12.0001 6.74991C12.8955 6.74991 13.7583 6.87005 14.5666 7.09296C14.6997 7.12967 14.7778 7.26733 14.7411 7.40043C14.7044 7.53353 14.5668 7.61168 14.4337 7.57497C14.0516 7.4696 13.6562 7.38838 13.2501 7.33348V8.24991C13.2501 8.38798 13.1382 8.49991 13.0001 8.49991C12.8621 8.49991 12.7501 8.38798 12.7501 8.24991V7.27975C12.5849 7.26654 12.4182 7.25764 12.2501 7.2532V8.74991C12.2501 8.88798 12.1382 8.99991 12.0001 8.99991C11.8621 8.99991 11.7501 8.88798 11.7501 8.74991V7.2532ZM5.62289 10.0471C5.7108 9.9406 5.69577 9.78302 5.58931 9.69511C5.48284 9.60719 5.32527 9.62223 5.23735 9.72869C4.30249 10.8608 3.75012 12.2459 3.75012 13.7499H3.00012C2.86205 13.7499 2.75012 13.8618 2.75012 13.9999C2.75012 14.138 2.86205 14.2499 3.00012 14.2499H3.78225C3.80502 14.4235 3.84011 14.5949 3.88826 14.7633L2.97498 14.8916C2.83826 14.9108 2.74299 15.0373 2.76221 15.174C2.78143 15.3107 2.90784 15.406 3.04457 15.3868L4.06549 15.2433C4.35639 15.8787 4.85921 16.4567 5.61762 16.9307C6.92466 17.7476 8.97905 18.2499 12.0001 18.2499C15.0212 18.2499 17.0756 17.7476 18.3826 16.9307C19.141 16.4567 19.6438 15.8788 19.9347 15.2433L20.9554 15.3868C21.0922 15.406 21.2186 15.3107 21.2378 15.174C21.257 15.0373 21.1617 14.9108 21.025 14.8916L20.112 14.7633C20.1601 14.5949 20.1952 14.4235 20.218 14.2499H21.0001C21.1382 14.2499 21.2501 14.138 21.2501 13.9999C21.2501 13.8618 21.1382 13.7499 21.0001 13.7499H20.2501C20.2501 12.2459 19.6978 10.8608 18.7629 9.72869C18.675 9.62223 18.5174 9.60719 18.4109 9.69511C18.3045 9.78302 18.2894 9.9406 18.3774 10.0471C19.2454 11.0983 19.7501 12.3729 19.7501 13.7499H19.0001C18.8621 13.7499 18.7501 13.8618 18.7501 13.9999C18.7501 14.138 18.8621 14.2499 19.0001 14.2499H19.7131C19.6902 14.3997 19.6566 14.5475 19.6112 14.6929L19.0445 14.6133C18.9078 14.5941 18.7813 14.6893 18.7621 14.8261C18.7429 14.9628 18.8382 15.0892 18.9749 15.1084L19.414 15.1701C19.1555 15.6652 18.7363 16.12 18.1176 16.5067C16.9247 17.2523 14.979 17.7499 12.0001 17.7499C9.0212 17.7499 7.07558 17.2523 5.88262 16.5067C5.26389 16.12 4.84472 15.6652 4.58619 15.1701L5.02511 15.1084C5.16183 15.0892 5.2571 14.9628 5.23788 14.8261C5.21866 14.6893 5.09225 14.5941 4.95552 14.6133L4.38903 14.6929C4.34366 14.5475 4.31 14.3996 4.28718 14.2499H5.00012C5.13819 14.2499 5.25012 14.138 5.25012 13.9999C5.25012 13.8618 5.13819 13.7499 5.00012 13.7499H4.25012C4.25012 12.3729 4.75483 11.0983 5.62289 10.0471ZM17.3559 4.82634C17.2444 4.52843 16.867 4.44451 16.6419 4.6752C16.2081 5.11967 15.1834 6.28512 14.7789 7.77145C14.7427 7.90467 14.8213 8.04207 14.9545 8.07833C15.0877 8.11459 15.2251 8.03598 15.2614 7.90276C15.611 6.61797 16.4784 5.57425 16.9248 5.10243C17.1952 5.84677 17.7701 7.66518 17.7701 9.65528C17.7701 9.79335 17.8821 9.90528 18.0201 9.90528C18.1582 9.90528 18.2701 9.79335 18.2701 9.65528C18.2701 7.48037 17.6143 5.51666 17.3559 4.82634ZM12.0001 12.4999C12.5524 12.4999 13.0001 12.6491 13.0001 12.8332C13.0001 12.9886 12.6814 13.3563 12.2501 13.4675V13.6799L12.3366 13.6582C12.8005 13.5423 13.2499 13.8931 13.2499 14.3714C13.2499 14.6335 13.1113 14.8695 12.8959 15C13.1113 15.1306 13.2499 15.3666 13.2499 15.6287C13.2499 16.1069 12.8005 16.4578 12.3366 16.3418L11.9393 16.2425C11.8054 16.209 11.7239 16.0733 11.7574 15.9393C11.7909 15.8054 11.9266 15.7239 12.0606 15.7574L12.4579 15.8568C12.6062 15.8938 12.7499 15.7816 12.7499 15.6287C12.7499 15.5208 12.6765 15.4268 12.5719 15.4006L11.9485 15.2448C11.861 15.2263 11.7867 15.1614 11.7601 15.0705C11.7534 15.0479 11.7499 15.0242 11.7499 15C11.7499 14.9759 11.7534 14.9521 11.7601 14.9295C11.7867 14.8387 11.861 14.7737 11.9485 14.7553L12.5719 14.5994C12.6765 14.5733 12.7499 14.4792 12.7499 14.3714C12.7499 14.2184 12.6062 14.1062 12.4579 14.1433L12.0606 14.2426C11.9266 14.2761 11.7909 14.1947 11.7574 14.0607C11.7514 14.0366 11.7491 14.0125 11.7501 13.9889V13.4675C11.3188 13.3563 11.0001 12.9886 11.0001 12.8332C11.0001 12.6491 11.4478 12.4999 12.0001 12.4999ZM8.29012 11.428L7.95118 11.089C7.73804 10.8759 7.39247 10.8759 7.17933 11.089C6.96619 11.3022 6.96619 11.6477 7.17932 11.8609L8.2901 12.9717L9.39861 11.8632L9.40092 11.8609C9.61406 11.6477 9.61406 11.3022 9.40092 11.089C9.18778 10.8759 8.84221 10.8759 8.62907 11.089L8.29012 11.428ZM8.2901 13.7061L6.81208 12.2281C6.39613 11.8121 6.39614 11.1377 6.81209 10.7218C7.21875 10.3151 7.87242 10.306 8.29012 10.6945C8.70783 10.306 9.3615 10.3151 9.76815 10.7218C10.1841 11.1377 10.1841 11.8121 9.76815 12.2281L9.76417 12.2321L8.2901 13.7061ZM8.29031 10.7499C8.61605 10.4243 9.10635 10.3637 9.49339 10.568C9.10629 10.3637 8.61589 10.4244 8.29016 10.7501C7.88983 10.3498 7.24075 10.3498 6.84042 10.7501C6.50365 11.0869 6.45016 11.5997 6.67998 11.9924C6.45013 11.5997 6.5036 11.0869 6.84038 10.7501C7.24072 10.3497 7.88997 10.3496 8.29031 10.7499ZM15.3711 11.089L15.71 11.428L16.049 11.089C16.2621 10.8759 16.6077 10.8759 16.8208 11.089C17.034 11.3022 17.034 11.6477 16.8208 11.8609L16.8185 11.8632L15.71 12.9717L14.5992 11.8609C14.3861 11.6477 14.3861 11.3022 14.5992 11.089C14.8124 10.8759 15.158 10.8759 15.3711 11.089ZM14.232 12.2281L15.71 13.7061L17.1841 12.2321L17.1881 12.2281C17.604 11.8121 17.604 11.1377 17.1881 10.7218C16.7814 10.3151 16.1278 10.306 15.71 10.6945C15.2923 10.306 14.6387 10.3151 14.232 10.7218C13.8161 11.1377 13.816 11.8121 14.232 12.2281ZM16.7296 10.4929C16.3803 10.3884 15.9862 10.4741 15.7102 10.7499C15.3099 10.3496 14.6606 10.3497 14.2603 10.7501C13.9533 11.0571 13.8817 11.5105 14.0456 11.8857C13.8817 11.5105 13.9533 11.0571 14.2603 10.7501C14.6607 10.3498 15.3097 10.3498 15.7101 10.7501C15.986 10.4742 16.3802 10.3884 16.7296 10.4929Z" clip-rule="evenodd"></path></svg>