<svg xmlns="http://www.w3.org/2000/svg" enable-background="new 0 0 60 60" viewBox="0 0 60 60" id="lion"><path d="M38.46 6.98c-.55 0-1 .45-1 1v5.31c-.87.1-1.73.51-2.51 1.23-1.04.95-1.83 2.35-2.22 3.94-.38 1.58-.33 3.18.15 4.51.54 1.47 1.53 2.45 2.79 2.76.28.07.55.1.83.1 1 0 2.02-.43 2.92-1.26 1.04-.96 1.83-2.36 2.21-3.94.39-1.58.34-3.19-.15-4.52-.42-1.16-1.12-2-2.02-2.46V7.98C39.46 7.43 39.01 6.98 38.46 6.98zM21.54 6.98c-.55 0-1 .45-1 1v5.83c-.59.4-1.11.99-1.51 1.74-.53 1.01-.81 2.23-.81 3.51 0 .31.02.62.05.94.34 3.39 2.44 5.89 4.85 5.89.12 0 .23-.01.36-.02 2.55-.26 4.26-3.25 3.9-6.81-.17-1.62-.76-3.11-1.66-4.2-.91-1.1-2.02-1.68-3.18-1.67V7.98C22.54 7.43 22.09 6.98 21.54 6.98zM30 27.55c-.01 0-.01 0-.02 0-5.04 0-9.78 1.97-13.35 5.53-3.57 3.57-5.54 8.31-5.54 13.36-.01 2.78.59 4.56 1.87 5.59 1.95 1.58 4.88.95 8.6.16 2.52-.54 5.39-1.16 8.41-1.16h.01c3.03 0 5.9.62 8.43 1.17 2.03.44 3.84.82 5.37.82 1.26 0 2.35-.26 3.23-.97 1.28-1.03 1.87-2.81 1.88-5.59C48.89 36.04 40.42 27.56 30 27.55zM52.13 19.07v-4.96c0-.55-.45-1-1-1s-1 .45-1 1v4.34c-2.04.03-4.17 1.75-5.26 4.45-1.34 3.31-.52 6.66 1.86 7.62.42.17.87.25 1.32.25.84 0 1.72-.29 2.56-.86 1.16-.8 2.14-2.07 2.75-3.58C54.57 23.34 54.01 20.33 52.13 19.07zM13.26 30.5c2.38-.96 3.2-4.31 1.87-7.62-1.09-2.7-3.23-4.42-5.27-4.45v-4.32c0-.55-.45-1-1-1s-1 .45-1 1v4.91c-1.21.81-1.87 2.34-1.87 4.13 0 .99.21 2.07.64 3.14 1.1 2.72 3.26 4.45 5.31 4.45C12.39 30.75 12.83 30.67 13.26 30.5z" fill="#f6560c" class="color000000 svgShape"></path></svg>