<svg id="SvgjsSvg1093" width="288" height="288" xmlns="http://www.w3.org/2000/svg" version="1.1" xmlns:xlink="http://www.w3.org/1999/xlink" xmlns:svgjs="http://svgjs.com/svgjs"><defs id="SvgjsDefs1094"></defs><g id="SvgjsG1095"><svg xmlns="http://www.w3.org/2000/svg" enable-background="new 0 0 132 132" viewBox="0 0 132 132" width="288" height="288"><path fill="#4fe88d" d="M130,65.9999619c0,35.3471832-28.6586304,63.9943924-63.9943237,63.9943924C30.6586323,129.9943542,2,101.3471451,2,65.9999619C2,30.6528549,30.6586323,2.0056391,66.0056763,2.0056391C101.3413696,2.0056391,130,30.6528549,130,65.9999619z" class="color4fe88d svgShape"></path><circle cx="66" cy="66" r="49.2" fill="#35d175" transform="rotate(-67.5 66 66)" class="color35d175 svgShape"></circle><path fill="#592c84" d="M66.5081253,99.5260391H30.0800781l-0.0100098-28.8800049h-9.2800293v-9.1000328c0-7.2799683,5.9000244-13.1799927,13.1799316-13.1799927h32.5381546V99.5260391z" class="color592c84 svgShape"></path><path fill="#561183" d="M63.7069702 99.5277481V68.963623c0-1.5476532 1.2438736-2.8104782 2.8009109-2.8104782v4.4910736l.0095062 28.8835297H63.7069702zM32.8592567 99.5308228V68.9565735c0-1.5400696-1.2449913-2.799469-2.7993832-2.799469l-.0072021 33.3737183c.0072021 0 .0144062 0 .0216103 0H32.8592567z" class="color561183 svgShape"></path><rect width="9.263" height="2.109" x="20.791" y="66.162" fill="#ffffff" class="colorfff svgShape"></rect><path fill="#ffffff" d="M38.7615166,48.3678436v0.9862366c0,4.5462646,3.7064056,8.561409,8.5817528,8.561409c4.710247,0,8.561451-3.8308182,8.561451-8.561409v-0.9658089L38.7615166,48.3678436z" class="colorfff svgShape"></path><rect width="31.485" height="16.566" x="31.628" y="14.503" fill="#13181e" class="color13181e svgShape"></rect><path fill="#805723" d="M53.2383041,44.3058891v5.2457695c0,3.2607002-2.6494408,5.8973427-5.8976173,5.8973427c-3.3163261,0-5.9098701-2.7094879-5.9098701-5.8973427v-5.2457695H53.2383041z" class="colorffc27c svgShape"></path><path fill="#351b01" d="M41.4230003,44.2999496v5.2563057c0,1.8435745,1.0041771,3.6329956,1.9514923,4.3420372c-0.1759644-0.5625496-0.2813301-1.1601868-0.2813301-1.775528v-0.0000038c0-2.902916,2.3532791-5.2561913,5.2561951-5.2561913h4.8868904v-2.5666199H41.4230003z" class="colorf7b26d svgShape"></path><path fill="#805723" d="M34.8346596,18.8028011v15.2691669c-0.0000038,6.0034904,4.0544701,11.4959946,9.944397,12.6581726c7.9800758,1.5746002,14.9814034-4.5096245,14.9814034-12.2028275V18.8028011H34.8346596z" class="colorffc27c svgShape"></path><path fill="#ffffff" d="M54.9402428 42.3114319c1.0261803-1.0267448 1.82658-2.2211342 2.377491-3.5509949.1840134-.4425354-.0259666-.9499817-.4684982-1.1334305-.4414063-.1840096-.9505463.0265312-1.1323013.468502-.4651108 1.1193161-1.1379433 2.1251755-2.0026894 2.9899254-.3386765.3386726-.3386765.8878899 0 1.2259979C54.051548 42.6487389 54.6002045 42.6514702 54.9402428 42.3114319zM58.0560417 36.0109673c.0383835-.2890015.0666084-.580822.0824127-.8743401.0259628-.478096-.3409348-.8867607-.8195915-.9127274-.4843025-.0146751-.8861961.3409309-.9121628.8190269-.013546.2494888-.0372543.4972839-.0688629.74226-.063221.4747086.272068.9104691.746212.9725571C57.5563354 36.8202515 57.9943848 36.487587 58.0560417 36.0109673z" opacity=".3" class="colorfff svgShape"></path><path d="M43.3176346 28.4002151v1.8320847c0 1.1988754-.9718819 2.1707573-2.1707611 2.1707573h-.0000038c-1.1988754 0-2.1707573-.9718819-2.1707573-2.1707573v-1.8320847c0-1.1988773.9718819-2.1707573 2.1707573-2.1707573h.0000038C42.3457527 26.2294579 43.3176346 27.2013378 43.3176346 28.4002151zM55.6165733 28.4002151v1.8320847c0 1.1988754-.9718819 2.1707573-2.1707611 2.1707573h-.0000038c-1.1988754 0-2.1707573-.9718819-2.1707573-2.1707573v-1.8320847c0-1.1988773.9718819-2.1707573 2.1707573-2.1707573h.0000038C54.6446915 26.2294579 55.6165733 27.2013378 55.6165733 28.4002151zM47.2963905 34.6509628c.4489288 0 .8131523-.3642273.8131523-.8131523V31.894928c0-.4489269-.3642235-.8131523-.8131523-.8131523s-.8131523.3642254-.8131523.8131523v1.9428825C46.4832382 34.2867355 46.8474617 34.6509628 47.2963905 34.6509628z" fill="#000000" class="color000 svgShape"></path><path fill="#ffffff" d="M52.2141724 28.7485638c0 .4227886.3470192.7697411.7698746.7697411.4337082 0 .7697411-.3469524.7697411-.7697411 0-.4228554-.3360329-.7698078-.7697411-.7698078C52.5611916 27.978756 52.2141724 28.3257084 52.2141724 28.7485638zM39.8296928 28.320282c0 .4227886.3470192.7697411.7698746.7697411.4337082 0 .7697411-.3469524.7697411-.7697411 0-.4228554-.3360329-.7698078-.7697411-.7698078C40.176712 27.5504742 39.8296928 27.8974266 39.8296928 28.320282z" class="colorfff svgShape"></path><path fill="#805723" d="M34.8287125,25.5081749c0.0013466,0,0.002491,0.0004158,0.0038414,0.0004158v9.2545013c-0.0013504,0-0.0024948,0.0004158-0.0038414,0.0004158c-2.552021,0-4.627615-2.0755959-4.627615-4.627615S32.2766914,25.5081749,34.8287125,25.5081749z" class="colorffc27c svgShape"></path><path fill="#351b01" d="M31.1069908,27.399971c1.1214371-0.7965393,2.6935349,0.0838623,2.6935349,1.4673157v5.7853355c0.3248978,0.073307,0.6707115,0.1152725,1.0270805,0.1152725v-9.2649174C33.2974091,25.5029774,31.9454308,26.2471256,31.1069908,27.399971z" class="colorf7b26d svgShape"></path><path fill="#805723" d="M59.7616348,25.5081749c-0.0013504,0-0.002491,0.0004158-0.0038414,0.0004158v9.2545013c0.0013504,0,0.002491,0.0004158,0.0038414,0.0004158c2.552021,0,4.6276169-2.0755959,4.6276169-4.627615S62.3136559,25.5081749,59.7616348,25.5081749z" class="colorffc27c svgShape"></path><path fill="#24272b" d="M30.4152336,14.4633541c0,1.8760757,0.7546387,3.5739346,1.9808578,4.8001518c1.2262154,1.2367096,2.9240761,1.9913483,4.8001518,1.9913483h8.7303276c7.0392761,5.9050484,17.8275833,0.89258,17.8275833-8.2902241c0-5.9948964-4.8629684-10.8474388-10.8474388-10.8474388c-2.5467873,0-4.8944435,0.8804021-6.7495384,2.3581445c-0.7126732-0.3248973-1.5092125-0.5135412-2.3476524-0.5135412c-2.4315147,0-4.5066643,1.5511146-5.2717934,3.7206154h-1.3414879C33.4441528,7.6824098,30.4152336,10.7113304,30.4152336,14.4633541z" class="color24272b svgShape"></path><path fill="#13181e" d="M30.5724678,15.9201794c0.282999,1.2891617,0.9223022,2.4420071,1.8236237,3.3433266c1.2262154,1.2367096,2.9240761,1.9913483,4.8001518,1.9913483h8.7303276c7.0392761,5.9050484,17.8275833,0.89258,17.8275833-8.2902241c0-2.1799269-0.6393051-4.2131748-1.750248-5.9110336c0.3144035,1.016592,0.482132,2.085638,0.482132,3.2070742c0,9.192193-10.7935295,14.1910295-17.8275833,8.2901602h-8.7303925c-1.8760147,0-3.5738716-0.7545757-4.8001537-1.9913483C30.9287739,16.3604126,30.7401314,16.140295,30.5724678,15.9201794z" class="color13181e svgShape"></path><path fill="#ffffff" d="M33.7156029 16.8823395c.2820244.446106.886425.5593014 1.3242302.280632.439064-.2878361.5685539-.8779583.2807617-1.3241405-.509697-.7860556-.7216911-1.7203236-.6261826-2.6267586.0588875-.5147238-.3142166-.9904833-.8563499-1.0506687-.4991989-.0605536-.998703.3303738-1.0434647.856391C32.6448441 14.4139862 32.9955368 15.7648039 33.7156029 16.8823395zM35.2629662 11.5281038c.1078796-.1799135.2231369-.3454647.352623-.4965639.3382187-.4030056.2877922-1.007535-.1150818-1.3457518-.4030457-.3454647-1.0076218-.2878799-1.3458366.1151257-.1943207.2302952-.3742371.4749966-.5253334.7340622-.2779579.4389935-.1329002 1.0401306.3166046 1.3097773C34.4144821 12.134531 34.9959908 11.9619045 35.2629662 11.5281038z" opacity=".3" class="colorfff svgShape"></path><path fill="#351b01" d="M31.1069908 27.399971c1.1214371-.7965393 2.6935349.0838623 2.6935349 1.4673157v5.7853355c.3248978.073307.6707115.1152725 1.0270805.1152725v-9.2649174C33.2974091 25.5029774 31.9454308 26.2471256 31.1069908 27.399971zM63.4844589 27.399971c-1.1214371-.7965393-2.6935349.0838623-2.6935349 1.4673157v5.7853355c-.3248978.073307-.6707115.1152725-1.0270805.1152725v-9.2649174C61.2940407 25.5029774 62.646019 26.2471256 63.4844589 27.399971z" class="colorf7b26d svgShape"></path><path d="M50.3948631,40.0026817c0.2901726-0.2882423,0.292099-0.7567596,0.0038567-1.0469322c-0.2892113-0.2911377-0.7577286-0.2911377-1.046936-0.0038567c-1.316864,1.3072205-3.4502563,1.2985458-4.7574806-0.0163879c-0.2882423-0.2901726-0.7567635-0.2921028-1.046936-0.0038567c-0.2901726,0.2882423-0.292099,0.7567596-0.0038528,1.0469322C45.4252205,41.8737183,48.4988327,41.8851547,50.3948631,40.0026817z" fill="#000000" class="color000 svgShape"></path><path fill="#805723" d="M20.7933846,70.1714249l0.0029526,5.5408859c0.0021381,4.0141525,3.2568493,7.2671356,7.2710018,7.2671356h1.9896069l12.326149-0.0068283v-9.256691h-12.326149v-3.5445023H20.7933846z" class="colorffc27c svgShape"></path><path fill="#351b01" d="M20.7933846,70.1714249v5.5417404c0.0068226,4.0148392,3.2582645,7.2662811,7.273056,7.2662811h1.9905052l12.326149-0.0068283v-1.5814133l-10.7446957,0.0068283h-1.9905033c-4.0147934,0-7.2662334-3.251442-7.2662334-7.2662735l-0.0068245-3.9603348H20.7933846z" class="colorf7b26d svgShape"></path><path fill="#ffffff" d="M25.1060963 62.6236191c.5959644 0 1.079483-.4831696 1.079483-1.079483 0-.4571648.0400581-.917141.1201763-1.3669243.1033096-.5871773-.2881432-1.1473007-.8756752-1.2509613-.5840168-.1022568-1.1469498.2877922-1.2509632.8749695-.1012001.5738258-.152504 1.160305-.152504 1.7429161C24.0266132 62.1404495 24.5101318 62.6236191 25.1060963 62.6236191zM27.2678719 57.5895462c1.3992519-2.3589096 3.9651318-3.8242226 6.696167-3.8242226.5959625 0 1.079483-.4831657 1.079483-1.079483 0-.5963135-.4835205-1.079483-1.079483-1.079483-3.4893436 0-6.7664452 1.870472-8.5529327 4.881218-.3043079.5130348-.1349354 1.1750603.3773975 1.4793663C26.2987633 58.2697792 26.9624958 58.1040039 27.2678719 57.5895462z" opacity=".3" class="colorfff svgShape"></path><path fill="#ffffff" d="M37.1533928 95.5231171l8.8097801-.0001602c.6119995-.0000153 1.1072006.4957123 1.1071739 1.1071396-.0000305.6114273-.4952774 1.1071777-1.1072769 1.1071854l-8.8097801.0001678c-.6120033.0000076-1.1072044-.4957199-1.1071739-1.1071472C36.0461426 96.0188751 36.5413895 95.5231323 37.1533928 95.5231171zM49.4663086 95.5231171l1.2139549-.0001602c.6119995-.0000153 1.1072006.4957123 1.1071739 1.1071396-.0000305.6114273-.4952774 1.1071777-1.1072807 1.1071854l-1.2139511.0001678c-.6120033.0000076-1.1072044-.4957199-1.1071739-1.1071472C48.3590584 96.0188751 48.8543053 95.5231323 49.4663086 95.5231171z" opacity=".4" class="colorfff svgShape"></path><rect width="36.443" height="3.957" x="30.074" y="99.528" fill="#ffffff" class="colorfff svgShape"></rect><rect width="2.764" height="3.959" x="30.075" y="99.527" fill="#ffb049" class="colore5f5f9 svgShape"></rect><path fill="#24272b" d="M54.7572556,65.753479v16.8126831c0,0.8630829-0.7062874,1.5692749-1.5692749,1.5692749H42.3678169c-0.8631744,0-1.5692711-0.706192-1.5692711-1.5692749V65.753479c0-0.8630829,0.7060966-1.5692749,1.5692711-1.5692749h10.8201637C54.0509682,64.1842041,54.7572556,64.8903961,54.7572556,65.753479z" class="color24272b svgShape"></path><path fill="#13181e" d="M44.9352875,67.4423447v3.1727905c0,0.7262115-0.5887108,1.3149185-1.3149223,1.3149185l0,0c-0.7262115,0-1.3149223-0.588707-1.3149223-1.3149185v-3.1727905c0-0.7262115,0.5887108-1.3149261,1.3149223-1.3149261l0,0C44.3465767,66.1274185,44.9352875,66.7161331,44.9352875,67.4423447z" class="color13181e svgShape"></path><path fill="#805723" d="M40.7985458,71.9471436c0,0.9456406,0.7690468,1.7109299,1.7146759,1.7063065l5.330265-0.0260849c0.6205063,0.0137634,1.1307526,0.5240555,1.1307526,1.1722107c0.0069008,0.6205521-0.5171471,1.1515045-1.1514587,1.1584091l1.5789642-0.0138092c0.648201,0,1.1722527,0.5240479,1.1791534,1.1584091c0.0069008,0.6619644-0.5171471,1.1860123-1.1653481,1.1928711l-0.8619118,0.0069046c0.6412964,0,1.1515427,0.5102386,1.1584435,1.1446381c0,0.6550598-0.5102425,1.1859741-1.1584435,1.1928711l-1.1791534,0.0069046c0.6344795,0,1.1516266,0.5102463,1.1516266,1.1377411c0.0069046,0.6481171-0.5102425,1.1790695-1.1516266,1.1859741l-6.7986679,0.027565c-1.7514343,0.0138016-3.1857109-1.3997269-3.1926117-3.15802l-0.027523-4.6612244c-0.0069008-0.9791183,0.4344063-1.8962097,1.1928711-2.5029984l2.2499924-1.9176483V71.9471436z" class="colorffc27c svgShape"></path><path fill="#351b01" d="M37.3940582,78.1562653c0.006485,1.7532578,1.4380074,3.1673813,3.1912193,3.1608887l6.8018723-0.0273819c0.3028526,0.0020523,0.5791283-0.124588,0.7823982-0.325119c0.2188454,0.2125778,0.3546181,0.4979935,0.3524399,0.8193283c0.0047684,0.6517029-0.5037079,1.1807098-1.1462288,1.1855392l-6.8018723,0.0272675c-1.753273,0.015564-3.1847954-1.3984375-3.1912193-3.1608887L37.3940582,78.1562653z" class="colorf7b26d svgShape"></path><path fill="#ffffff" d="M52.6241875 75.8600388c-.3532639 0-.6398735-.2866058-.6398735-.6398697v-1.3418198c0-.3532562.2866096-.6398697.6398735-.6398697.35326 0 .6398697.2866135.6398697.6398697v1.3418198C53.2640572 75.5734329 52.9774475 75.8600388 52.6241875 75.8600388zM52.6241875 72.258255c-.3532639 0-.6398735-.2866058-.6398735-.6398697v-4.4670258c0-.3532639.2866096-.6398773.6398735-.6398773.35326 0 .6398697.2866135.6398697.6398773v4.4670258C53.2640572 71.9716492 52.9774475 72.258255 52.6241875 72.258255z" opacity=".3" class="colorfff svgShape"></path><path fill="#c68142" d="M13.9606323,103.2025528c11.600708,16.2172852,30.5715332,26.7918015,52.036377,26.7918015c21.4680176,0,40.4399414-10.5747604,52.0423584-26.7918015H13.9606323z" class="colorc68142 svgShape"></path><path fill="#af6223" d="M26.3440552 103.2025528c-.00354.057312-.0170898.1117554-.0170898.1699829v12.8387451c1.7398682 1.3798828 3.5396729 2.65979 5.4194336 3.8496704v-16.6884155c0-.0582275-.0133057-.1126709-.0169678-.1699829H26.3440552zM103.2597733 110.2118301v7.8092728c-1.73983 1.2598953-3.5497131 2.4198151-5.4195404 3.4896622v-11.2989349c0-1.499855 1.2099762-2.7097092 2.7098312-2.7097092C102.0562668 107.502121 103.2597733 108.7058258 103.2597733 110.2118301zM87.1711884 114.9114075v11.4789124c-1.7698593.6299438-3.5796204 1.1798782-5.4194183 1.6298523v-13.1087646c0-1.4998627 1.2098465-2.7097702 2.7097092-2.7097702C85.9679337 112.2016373 87.1711884 113.4053574 87.1711884 114.9114075zM37.5934448 103.2025528v6.4384766c0 1.4687576 1.1928978 2.7097168 2.7097168 2.7097168 1.4997559 0 2.7097168-1.2098389 2.7097168-2.7097168v-6.4384766H37.5934448zM112.4887085 103.2025528v6.7592773c1.9500732-2.0598755 3.7697754-4.2496338 5.4194336-6.5594482v-.1998291H112.4887085zM50.4559937 103.2025528c-.2702637.4215698-.4312744.9204712-.4312744 1.4598389l.0100098 23.3178101c1.7698975.4599533 3.5797119.8398972 5.4194336 1.1398849v-24.457695c0-.5385742-.1695557-1.0379028-.4440918-1.4598389H50.4559937zM88.2410278 103.2025528v.8589478c0 1.4638214 1.1808395 2.7096558 2.7097168 2.7096558 1.4901123 0 2.7097168-1.2198486 2.7097168-2.7096558v-.8589478H88.2410278zM67.3630981 103.2025528v26.7673874c1.8299561-.0300293 3.6397705-.1499023 5.4194336-.3400269v-26.4273605H67.3630981z" class="coloraf6223 svgShape"></path><polygon fill="#592c84" points="80.75 57.624 64.389 57.633 64.389 48.366 80.75 48.366" class="color592c84 svgShape"></polygon><polygon fill="#805723" points="80.75 57.623 103.24 57.632 97.455 48.365 80.75 48.366" class="colorffc27c svgShape"></polygon><rect width="2.109" height="9.263" x="76.592" y="48.367" fill="#ffffff" class="colorfff svgShape"></rect><g><path fill="#ffffff" d="M91.1895599,87.2021027c0,0-4.8008652,5.1739655-1.9237747,13.3789902l5.6537094-1.0126419l-1.6220627-10.2651596L91.1895599,87.2021027z" class="colord3e6ed svgShape"></path><path fill="#ffb049" d="M96.6367798,101.8891983c0,1.3051529-0.9900513,1.6123505-2.4163284,1.6825638c-0.4827347,0.2273254-1.0716858,0.3598633-1.7071381,0.3598633c-0.6345825,0-1.2235184-0.1325378-1.7071381-0.3598633c-1.4253922-0.0702133-2.4163284-0.3774109-2.4163284-1.6825638c0-1.7826157,1.8466949-3.2273178,4.1234665-3.2273178C94.7909622,98.6618805,96.6367798,100.1065826,96.6367798,101.8891983z" class="colore5f5f9 svgShape"></path><path fill="#ffffff" d="M91.0519409 102.115654c0 .4600372-.0566864 1.024231-.219429 1.4561081-.1630478-.4368744-.2177353-.9881516-.219429-1.4561081 0-.4606247.0570068-1.0242233.219429-1.4552383C90.9951477 101.0920105 91.0535965 101.6579056 91.0519409 102.115654zM94.4398804 102.115654c0 .4616852-.0573502 1.0259552-.219429 1.4561081-.1620331-.4300461-.2194214-.9942322-.2194214-1.4561081 0-.4654922.0559387-1.0213318.2194214-1.4552383C94.3839417 101.0943069 94.4398804 101.6501617 94.4398804 102.115654zM92.7327423 102.4755173c0 .2431259-.0149231.4853668-.0473862.7284927-.0342484.2422485-.0807648.4853745-.1720428.7276154-.0912704-.2422409-.1377945-.4853668-.1720352-.7276154-.0324631-.2431259-.0473862-.4853668-.0473862-.7284927 0-.4654922.0559311-1.0213318.2194214-1.4552383C92.676796 101.4541702 92.7327423 102.010025 92.7327423 102.4755173zM115.3234253 87.2021027c0 0 4.592186 5.1739655 1.7151031 13.3789902l-5.653717-1.0126419 1.6220627-10.2651596L115.3234253 87.2021027z" class="colord3e6ed svgShape"></path><path fill="#ffb049" d="M109.6675262,101.8891983c0,1.3051529,0.9900513,1.6123505,2.4163284,1.6825638c1.001915,0.471817,2.376091,0.4880066,3.4142761,0c1.4253922-0.0702133,2.4163284-0.3774109,2.4163284-1.6825638c0-1.7826157-1.8466949-3.2273178-4.1234589-3.2273178C111.5133438,98.6618805,109.6675262,100.1065826,109.6675262,101.8891983z" class="colore5f5f9 svgShape"></path><path fill="#ffffff" d="M115.2523727 102.115654c0 .4600372.0566788 1.024231.2194214 1.4561081.1630478-.4368744.2177353-.9881516.219429-1.4561081 0-.4606247-.0570068-1.0242233-.219429-1.4552383C115.3091583 101.0920105 115.2507095 101.6579056 115.2523727 102.115654zM111.8644257 102.115654c0 .4616852.0573502 1.0259552.219429 1.4561081.1620331-.4300461.2194214-.9942322.2194214-1.4561081 0-.4654922-.0559311-1.0213318-.2194214-1.4552383C111.9203644 101.0943069 111.8644257 101.6501617 111.8644257 102.115654zM113.5715637 102.4755173c0 .4616852.0573502 1.0259552.219429 1.4561081.1620331-.4300461.219429-.9942322.219429-1.4561081 0-.4654922-.0559387-1.0213318-.219429-1.4552383C113.6275101 101.4541702 113.5715637 102.010025 113.5715637 102.4755173z" class="colord3e6ed svgShape"></path><path fill="#ffb049" d="M113.0361633,99.2572021l-2.9569702,3.9335938H96.2251129l-2.9569702-3.9335938c0,0-5.0562515-12.54776-1.3793564-21.5501404c3.6748123-9.0044174,11.2644119-1.2269974,11.2644119-1.2269974s7.5875168-7.77742,11.2623215,1.2269974C118.0924149,86.7094421,113.0361633,99.2572021,113.0361633,99.2572021z" class="colore5f5f9 svgShape"></path><path fill="#ffb049" d="M113.0370941,99.25737l-2.9569702,3.9335632H96.2260437L93.2690735,99.25737c0,0-5.0562515-12.5477905-1.3793564-21.5501404c0.060524-0.1481552,0.1231155-0.2921295,0.1856995-0.4319763c3.7374496-8.3178635,11.0787125-0.7950516,11.0787125-0.7950516s7.3370819-7.5207214,11.0745316,0.792984c0.064682,0.1398239,0.1272659,0.2837982,0.1877899,0.4340439C118.0933456,86.7095795,113.0370941,99.25737,113.0370941,99.25737z" class="colore5f5f9 svgShape"></path><path fill="#fc545d" d="M114.2286606,77.2731857c-1.4153976,4.873909-7.8844604,8.8213959-10.226799,10.1137924c-0.5299225,0.2923889-1.1697311,0.2924194-1.6996689,0.0000763c-2.3420639-1.2920074-8.8097153-5.2380219-10.2267761-10.1118011c3.7374496-8.3178635,11.0787125-0.7950516,11.0787125-0.7950516S110.4912109,68.9594803,114.2286606,77.2731857z" class="colorfc545d svgShape"></path><path fill="#ffffff" d="M104.8136902,101.5810928c0,1.502037,1.1394119,1.8555756,2.780838,1.9363861c0.5555649,0.2616196,1.2333527,0.4141464,1.9646759,0.4141464c0.7303085,0,1.4080887-0.1525269,1.9646606-0.4141464c1.640419-0.0808105,2.7808304-0.4343491,2.7808304-1.9363861c0-2.0515289-2.1252747-3.7141647-4.745491-3.7141647C106.9379578,97.8669281,104.8136902,99.5295639,104.8136902,101.5810928z" class="colorfff svgShape"></path><path fill="#ffb049" d="M111.2410278 101.8417053c0 .5294418.0652313 1.1787491.2525253 1.6757736.1876373-.5027771.2505798-1.1372147.2525253-1.6757736 0-.5301132-.0656052-1.1787186-.2525253-1.6747665C111.3063812 100.6636505 111.2391129 101.3149109 111.2410278 101.8417053zM107.3420029 101.8417053c0 .5313339.0660019 1.1807327.2525253 1.6757736.1864777-.4949188.2525253-1.1442184.2525253-1.6757736 0-.5357056-.0643692-1.1753922-.2525253-1.6747665C107.4063873 100.6662903 107.3420029 101.3059921 107.3420029 101.8417053zM109.3066711 102.2558517c0 .5313416.0660019 1.1807327.2525253 1.6757736.1864777-.4949188.2525253-1.1442184.2525253-1.6757736 0-.5356979-.0643768-1.1753922-.2525253-1.6747589C109.371048 101.0804443 109.3066711 101.7201462 109.3066711 102.2558517z" class="colore5f5f9 svgShape"></path><rect width=".817" height="13.126" x="102.744" y="90.064" fill="#ffffff" class="colord3e6ed svgShape"></rect><path fill="#ffffff" d="M108.3209839,88.3790054c0,0.6886215-0.5675964,1.2124023-1.4690933,1.5650787c-0.901474,0.3526764-2.1326828,0.5321121-3.4619522,0.5321121c-2.6585541,0-5.350502-0.7199249-5.350502-2.0971909c0,0.2149429,0.6072617,0.5300217,1.5797043,0.7908707c0.9724197,0.2629318,2.310051,0.471611,3.7707977,0.471611C106.3093338,89.6414871,108.3209839,88.806778,108.3209839,88.3790054z" class="colord3e6ed svgShape"></path><path fill="#ffffff" d="M101.4910049,101.5810928c0,1.502037-1.1394043,1.8555756-2.780838,1.9363861c-0.5555573,0.2616196-1.2333527,0.4141464-1.9646683,0.4141464c-0.7303085,0-1.4080887-0.1525269-1.9646606-0.4141464C93.140419,103.4366684,92,103.0831299,92,101.5810928c0-2.0515289,2.1252747-3.7141647,4.7454987-3.7141647C99.366745,97.8669281,101.4910049,99.5295639,101.4910049,101.5810928z" class="colorfff svgShape"></path><path fill="#ffb049" d="M95.0636749 101.8417053c0 .5294418-.0652313 1.1787491-.2525253 1.6757736-.187645-.5027771-.2505875-1.1372147-.252533-1.6757736 0-.5301132.0656128-1.1787186.252533-1.6747665C94.9983215 100.6636505 95.0655823 101.3149109 95.0636749 101.8417053zM98.9626999 101.8417053c0 .5313339-.0660019 1.1807327-.252533 1.6757736-.1864777-.4949188-.2525253-1.1442184-.2525253-1.6757736 0-.5357056.0643768-1.1753922.2525253-1.6747665C98.8983154 100.6662903 98.9626999 101.3059921 98.9626999 101.8417053zM96.9980316 102.2558517c0 .5313416-.0660019 1.1807327-.2525253 1.6757736-.1864777-.4949188-.252533-1.1442184-.252533-1.6757736 0-.5356979.0643768-1.1753922.252533-1.6747589C96.9336472 101.0804443 96.9980316 101.7201462 96.9980316 102.2558517z" class="colore5f5f9 svgShape"></path><g fill="none"><path fill="#ffb049" d="M89.7662354,54.9304161c1.9124146-0.1995735,5.7857208,0.2646332,9.2197113,6.061615l-8.4782562,6.9631615c0,0-4.4562531-5.3522873-2.3427048-11.7263832C88.4002228,55.5193825,89.0228577,55.0079918,89.7662354,54.9304161z" class="colore5f5f9 svgShape"></path><path fill="#fc545d" d="M90.8789749,65.4896545c-1.0062714-1.7959633-2.3304825-5.1125183-1.1292801-8.7354202c0.0299835-0.0902214,0.1045303-0.1543503,0.189949-0.1633186c2.8289795-0.2947502,5.1976624,1.7130699,6.8387299,4.0536156L90.8789749,65.4896545z" class="colorfc545d svgShape"></path><path fill="#ffb049" d="M116.5380783,54.9304161c-1.9124222-0.1995735-5.7857285,0.2646332-9.2197113,6.061615l8.4782486,6.9631615c0,0,4.4562531-5.3522873,2.3427048-11.7263832C117.9040833,55.5193825,117.2814484,55.0079918,116.5380783,54.9304161z" class="colore5f5f9 svgShape"></path><path fill="#fc545d" d="M115.4253311,65.4896545c1.0062714-1.7959633,2.3304825-5.1125183,1.1292801-8.7354202c-0.0299835-0.0902214-0.1045303-0.1543503-0.189949-0.1633186c-2.8289795-0.2947502-5.1976624,1.7130699-6.8387299,4.0536156L115.4253311,65.4896545z" class="colorfc545d svgShape"></path><path fill="#f14448" d="M116.6823196 57.17239c-2.6487045-.189415-4.9727325 1.841011-6.5077515 4.0051994l-.6492844-.5324364c1.6287308-2.3217545 4.018364-4.3637733 6.8398132-4.0533905.0853271.0074272.1595612.0723267.1892242.1632271C116.6007004 56.8941231 116.643364 57.0332565 116.6823196 57.17239zM89.6213379 57.17239c2.6487045-.189415 4.9727249 1.841011 6.5077438 4.0051994l.649292-.5324364c-1.6287308-2.3217545-4.018364-4.3637733-6.8398132-4.0533905-.0853348.0074272-.1595612.0723267-.1892319.1632271C89.7029572 56.8941231 89.6602936 57.0332565 89.6213379 57.17239z" class="colorf14448 svgShape"></path><ellipse cx="103.152" cy="70.575" fill="#ffb049" rx="14.526" ry="13.673" class="colore5f5f9 svgShape"></ellipse><path fill="#ffffff" d="M115.244606,78.1518555c-2.6045837,3.6749878-7.0475693,6.0958939-12.0916061,6.0958939c-5.0700302,0-9.5333939-2.4450455-12.1305466-6.1515503c3.0163651-2.2187119,7.3091202-3.6044693,12.0748901-3.6044693C107.9002457,74.4917297,112.2245255,75.8997726,115.244606,78.1518555z" class="colorfff svgShape"></path><path fill="#24272b" d="M98.6707993,67.9551926v2.8064041c0,0.5711288-0.4623413,1.033493-1.033493,1.033493c-0.5651245,0-1.0335007-0.4575043-1.0335007-1.033493v-2.8064041H98.6707993z" class="color24272b svgShape"></path><path fill="#13181e" d="M99.7385864,68.5191498c0,0.3159866-0.2597733,0.5621109-0.5620804,0.5621109h-3.060936c-0.3098145,0-0.5621033-0.2523193-0.5621033-0.5621109c0-0.31427,0.2555618-0.5639572,0.5621033-0.5639572h3.060936C99.4863129,67.9551926,99.7385864,68.2075043,99.7385864,68.5191498z" class="color13181e svgShape"></path><path fill="#24272b" d="M109.6830521,67.9551926v2.8064041c0,0.5711288-0.4623413,1.033493-1.033493,1.033493c-0.5651245,0-1.033493-0.4575043-1.033493-1.033493v-2.8064041H109.6830521z" class="color24272b svgShape"></path><path fill="#13181e" d="M110.7508392,68.5191498c0,0.3159866-0.2597656,0.5621109-0.5620804,0.5621109h-3.060936c-0.3098068,0-0.5621033-0.2523193-0.5621033-0.5621109c0-0.31427,0.2555618-0.5639572,0.5621033-0.5639572h3.060936C110.4985733,67.9551926,110.7508392,68.2075043,110.7508392,68.5191498z" class="color13181e svgShape"></path><g fill="none"><path fill="#ffffff" d="M103.848671 56.9182625v5.5912857c0 .3840218-.3116455.6956673-.6956711.6956673-.3858337 0-.6975174-.3123474-.6975174-.6956673v-5.5912857c.2318878-.0111427.4637756-.0167122.6975174-.0167122C103.3867493 56.9015503 103.6186371 56.9071198 103.848671 56.9182625zM100.3777618 57.1520081v3.8734512c0 .3840218-.3116455.6956673-.6956635.6956673-.3888321 0-.6956711-.317543-.6956711-.6956673v-3.5525208C99.4409256 57.3449478 99.9047012 57.2373352 100.3777618 57.1520081zM107.3177185 57.4729385v3.5525208c0 .3840218-.3116455.6956673-.6956635.6956673-.3836899 0-.6956711-.3127022-.6956711-.6956673v-3.8734512C106.3994446 57.2373352 106.8632278 57.3449478 107.3177185 57.4729385z" class="colord3e6ed svgShape"></path></g><g fill="none"><path fill="#24272b" d="M105.234314,78.3733521c-0.8610306,0-1.6233063-0.43116-2.0821609-1.0888901c-0.4588547,0.6577301-1.2211304,1.0888901-2.0821609,1.0888901c-1.1776962,0-2.1921616-0.7988281-2.4669724-1.9426193c-0.0586777-0.2443008,0.0917816-0.4899521,0.3360825-0.5486374c0.2439804-0.0586243,0.4899063,0.0917282,0.5486374,0.3360825c0.1761551,0.7331772,0.8267975,1.2452545,1.5822525,1.2452545c0.8972702,0,1.6271973-0.7299347,1.6271973-1.6271973c0-0.2512817,0.2036896-0.4549637,0.4549637-0.4549637c0.2512817,0,0.4549637,0.2036819,0.4549637,0.4549637c0,0.8972626,0.7299271,1.6271973,1.6271973,1.6271973c0.755455,0,1.4060974-0.5120773,1.5822525-1.2452545c0.0586243-0.2443542,0.30439-0.3947601,0.5486374-0.3360825c0.2443008,0.0586853,0.3947601,0.3043365,0.3360825,0.5486374C107.4264755,77.5745239,106.4120102,78.3733521,105.234314,78.3733521z" class="color24272b svgShape"></path></g><g fill="none"><path fill="#24272b" d="M104.6318512,73.3546448c0.3425751,0,0.6202774,0.2777023,0.6202774,0.6202698v0.0661087c0,0.5955276-0.2411499,1.1353531-0.6307449,1.5248947c-0.4565506,0.4565887-1.1195068,0.7093201-1.8365402,0.608902c-1.0729141-0.1502609-1.8439941-1.1165009-1.8439941-2.1998901v-0.0000153c0-0.3425674,0.27771-0.6202698,0.6202774-0.6202698H104.6318512z" class="color24272b svgShape"></path></g></g></g><g><path fill="#351b01" d="M100.6851654,49.5127182l-1.4237366-1.6441002c-0.7020645-0.8108292-1.9284897-0.8990021-2.7392731-0.1969376l-0.0001221,0.0000191c-0.8107758,0.7020645-0.8989105,1.9284897-0.1968536,2.7393188l3.4878006,4.028038c0.1429443,0.1649818,0.3112411,0.2920113,0.4896622,0.3965836L100.6851654,49.5127182z" class="colorf7b26d svgShape"></path><path fill="#805723" d="M103.0188293,51.2810478l-1.8187943,5.0080643c-0.3661118,1.008091-1.4801483,1.5284843-2.488266,1.1623344l-0.0000458-0.0000153c-1.0081253-0.3661499-1.5285721-1.4801903-1.1624603-2.4882813l1.8187943-5.0080643c0.3661118-1.0080872,1.4801407-1.5284843,2.488266-1.1623344l0.0000458,0.0000153C102.8644867,49.1589165,103.3849335,50.2729568,103.0188293,51.2810478z" class="colorffc27c svgShape"></path><path fill="#805723" d="M106.9946289,51.7110138l-2.1441498,5.9039383c-0.3661118,1.008091-1.4801483,1.5284882-2.488266,1.1623383l-0.0000458-0.0000153c-1.0081253-0.3661499-1.5285721-1.4801941-1.1624603-2.4882813l2.1441498-5.9039421c0.3661118-1.008091,1.4801483-1.5284882,2.488266-1.1623383l0.0000458,0.0000153C106.8402863,49.5888786,107.3607407,50.7029228,106.9946289,51.7110138z" class="colorffc27c svgShape"></path><path fill="#351b01" d="M104.3491287,58.3682518c-0.5164642,0.4867744-1.2765198,0.667057-1.9888,0.4083557c-0.5017624-0.1822395-0.8854752-0.5497704-1.0964661-1.0015984c-0.2112045-0.4519043-0.2468262-0.9820175-0.0646286-1.4837074l2.1457443-5.9083252c0.258667-0.7122345,0.884758-1.1794586,1.5894547-1.2632103c-0.5932388,0.554287-0.4057465,0.7087059-2.6421509,6.6609688c-0.183815,0.5061455-0.1420822,1.0334015,0.0645294,1.4836388c0.2127151,0.4474106,0.590332,0.8177681,1.0965729,1.0016365C103.7489929,58.3733749,104.0572815,58.4042358,104.3491287,58.3682518z" class="colorf7b26d svgShape"></path><path fill="#805723" d="M110.3197098,53.9327354l-1.8187943,5.0080605c-0.3661118,1.008091-1.4801407,1.5284882-2.488266,1.1623383l-0.0000458-0.0000191c-1.0081177-0.3661499-1.5285645-1.4801903-1.1624527-2.4882813l1.8187866-5.0080605c0.3661118-1.008091,1.4801483-1.5284882,2.488266-1.1623383l0.0000458,0.0000191C110.1653748,51.8106003,110.6858215,52.9246445,110.3197098,53.9327354z" class="colorffc27c svgShape"></path><path fill="#351b01" d="M108.0000076 59.6942558c-.516571.4867325-1.2766266.6670151-1.9889069.4083138-.506134-.1838303-.8853683-.5497322-1.0964661-1.0015984-.2066116-.4502373-.2467194-.9819756-.0645142-1.4836655l1.8203812-5.0124474c.258667-.7122345.8891373-1.1778717 1.5894547-1.2632141-.5914536.5526237-.4422684.8026886-2.3167953 5.7650909-.183815.5061455-.1465683 1.0317764.0645294 1.4836426.2127228.4474068.5948105.819397 1.0964661 1.0015945C107.3998718 59.699379 107.7080536 59.7301979 108.0000076 59.6942558zM100.7044601 57.039463c-.5164566.4867477-1.278244.6714745-1.9905319.4127693l-.0043716-.0015869c-1.0078964-.366066-1.5271225-1.4774399-1.1610947-2.4853058l1.8203888-5.0124435c.258667-.7122383.8891296-1.1778717 1.5894547-1.2632141-.2149124.2008018-.3890381.4569893-.498024.757103l-1.8187714 5.007988c-.183815.5061455-.1465683 1.0317764.0645294 1.4836388.2127151.4474106.5948105.819397 1.0965729 1.0016365C100.0982208 57.0474129 100.4064026 57.0782356 100.7044601 57.039463z" class="colorf7b26d svgShape"></path></g><g><path fill="#fc545d" d="M98.1695557,23.1060314c-0.2389297,5.6092625-4.8632507,10.3166752-10.4676285,10.6510639c-1.3607864,0.081192-2.6721649-0.0834503-3.8982468-0.4580193c-0.4522781-0.1381721-0.9346848-0.1141968-1.3521271,0.1080399l-2.8356857,1.5096359c-0.7385788,0.3932114-1.5951691-0.2704239-1.3989334-1.0838242l0.6191711-2.5667133c0.1336975-0.5542297-0.0319672-1.1210461-0.3961639-1.5596867c-2.1418304-2.5796127-3.1316299-6.1637287-2.2055359-9.8889942c1.0062943-4.047884,4.357933-7.2592888,8.4447098-8.0936823C92.0159149,10.2259064,98.473877,15.9613218,98.1695557,23.1060314z" class="colorfc545d svgShape"></path><path fill="#f14448" d="M87.9449768,11.5338383c-0.4656296,0.0388422-0.9313812,0.0969868-1.4164276,0.1940918c-4.0743942,0.8342762-7.4309158,4.0355501-8.4398651,8.0906391c-0.9312592,3.7251682,0.0582657,7.3146267,2.2118683,9.8950195c0.3686447,0.4269066,0.5237732,0.9895248,0.3880615,1.5521431l-0.6208801,2.5610924c-0.0776825,0.2910767,0,0.5627365,0.1551361,0.7761307l-0.6014633,0.310379c-0.7372894,0.3880653-1.6102905-0.2715378-1.3968964-1.0865097l0.6208878-2.5610924c0.1164017-0.5626183-0.0388489-1.1252365-0.4074936-1.5521431c-2.1341782-2.5803928-3.123703-6.1698513-2.2118607-9.8950195c1.0089417-4.055089,4.3654709-7.2563629,8.4593964-8.0906391C85.7913742,11.4951143,86.8778915,11.4368515,87.9449768,11.5338383z" class="colorf14448 svgShape"></path><path fill="#ffffff" d="M92.4763565,24.0235538L92.4763565,24.0235538l-4.5201874,4.5717068c-0.5025101,0.5025082-1.3172379,0.5025082-1.8197403,0l-4.5459518-4.5459461c-1.4411545-1.5184383-1.4153976-3.8860188,0.0772858-5.3786964c1.4925156-1.4925194,3.8602524-1.51828,5.3785324-0.051363c1.5184402-1.466917,3.86026-1.4411564,5.3529358,0.051363C93.8919067,20.1632957,93.917511,22.5052738,92.4763565,24.0235538z" class="colorfff svgShape"></path><path fill="#ffb049" d="M89.4195557,27.1331959l-1.4551544,1.4551563c-0.5044708,0.5043545-1.3194504,0.5043545-1.8237991,0l-4.5595627-4.5401421c-1.4357376-1.5134182-1.3968964-3.8804169,0.0776825-5.3744164c0.2522354-0.2522373,0.5431976-0.4850521,0.8536987-0.620882c-0.8343964,1.4358559-0.6403046,3.2789593,0.5431976,4.5207214l4.5594406,4.5595627C88.1001129,27.618248,88.9150848,27.618248,89.4195557,27.1331959z" class="colore5f5f9 svgShape"></path><path fill="#ffffff" d="M88.1567154 26.0114136c-.1624985-.1624966-.1624985-.4257412 0-.5882397l3.0273209-3.0269184c.1624985-.1624966.4257431-.1624966.5882416 0 .1624985.1624985.1624985.4257431 0 .5882397l-3.0273285 3.0269184C88.5824585 26.1739082 88.3192139 26.1739159 88.1567154 26.0114136zM95.2188416 22.9804344c.1021118-2.397356-.8165741-4.6718178-2.5983276-6.3382072-.2177505-.2039337-.2291183-.5463982-.0251846-.7645502.2039337-.2177467.5451736-.2291212.7645493-.0251875 2.001152 1.8736935 3.0562744 4.4421749 2.9395752 7.1742554-.0144424.3442078-.2693558.5129585-.5280228.5167503C95.4892044 23.5476341 95.2025223 23.3554001 95.2188416 22.9804344zM91.0751648 15.5023079c-.3258057-.186059-.6678619-.3505878-1.0164185-.4891167-.2778702-.1104984-.4127426-.4249306-.3030624-.7023945.1105042-.2782764.4249344-.4123363.7028046-.3026514.3948669.1568098.7824249.343276 1.152916.5541162.2591858.147872.3493729.4781485.2014999.7377377C91.6656494 15.5601053 91.3341446 15.649231 91.0751648 15.5023079z" opacity=".3" class="colorfff svgShape"></path></g></svg></g></svg>