<svg xmlns="http://www.w3.org/2000/svg" version="1" viewBox="0 0 512 512" id="Petting"><path fill="none" stroke="#ffffff" stroke-linecap="round" stroke-linejoin="round" stroke-miterlimit="10" stroke-width="15" d="m494.743 166.09-31.637 33.837a40.315 40.315 0 0 1-12.909 9.658c-14.541 6.866-46.124 21.025-59.112 20.93a16.011 16.011 0 0 1-5.504-.262l-65.429-14.779c-8.477-1.915-14.207-10.137-12.594-18.676 1.693-8.964 10.458-14.664 19.281-12.672l24.289 5.486 26.805 6.139c4.962 1.133 9.903-1.965 11.04-6.926 1.136-4.961-1.965-9.903-6.926-11.04l-77.956-17.326c-.692-.159-1.385-.191-2.066-.191h-.006s-1.477-.069-2.721.346l-83.305 33.954c-7.075 2.63-14.965-1.108-17.365-8.336-2.287-6.886 1.538-14.329 8.339-16.858l85.248-42.192a23.22 23.22 0 0 1 8.436-1.731c18.974-.3 125.79.66 125.79.66l68.302-89.085M175.95 167.275c-15.632-27.006-39.999-40.508-39.999-40.508-4.861 17.824-3.241 44.829-3.241 44.829-35.647 5.401-56.172 20.524-56.172 20.524-20.524-25.385-42.669-31.253-42.669-31.253-8.102 24.305 1.564 57.178 1.564 57.178s-22.629 57.252 5.457 98.84l16.203-10.802 4.321 19.984 25.925-19.444m335.411 38.348c-49.69 93.439-152.852 112.421-207.943 30.324-14.611-21.774-46.99-21.064-46.45 5.941.54 27.006 43.209 85.26 126.926 90.121 101.194 5.876 240.89-119.905 155.552-224.687a189.968 189.968 0 0 0-5.301-6.231" class="colorStroke474747 svgStroke"></path><path fill="none" stroke="#ffffff" stroke-linecap="round" stroke-linejoin="round" stroke-miterlimit="10" stroke-width="15" d="M115.554 315.059c12.379 0 22.415 10.035 22.415 22.415v0c0 12.379-10.035 22.415-22.415 22.415H36.238c-12.379 0-22.415-10.035-22.415-22.415v0c0-12.379 10.035-22.415 22.415-22.415m144.89 0h-20.284c-12.379 0-22.415 10.035-22.415 22.415v0c0 12.379 10.035 22.415 22.415 22.415h76.241c12.379 0 22.415-10.035 22.415-22.415v0c0-12.379-10.035-22.415-22.415-22.415m-103.209-59.077 5.308 14.863c-4.462 15.409-19.425 19.167-19.425 19.167m19.426-19.167c13.213 9.096 27.173 2.525 27.173 2.525M150.768 227.336l17.629-1.695M97.38 246.142 83.375 257.69M333.263 255.982s-40.512 41.607 7.117 73.36l-57.356 30.819c-8.526 4.581-11.478 15.369-6.472 23.652v0c4.659 7.71 14.544 10.417 22.481 6.156l51.748-27.78" class="colorStroke474747 svgStroke"></path></svg>